<?xml version="1.0" encoding="utf-8"?>
<!-- Generator: Adobe Illustrator 27.5.0, SVG Export Plug-In . SVG Version: 6.00 Build 0)  -->
<svg version="1.1" xmlns="http://www.w3.org/2000/svg" xmlns:xlink="http://www.w3.org/1999/xlink" x="0px" y="0px"
	 viewBox="0 0 171.3 106.7" style="enable-background:new 0 0 171.3 106.7;" xml:space="preserve">
<style type="text/css">
	.st0{opacity:0.62;fill:#6298A8;}
	.st1{opacity:0.62;fill:#43A353;}
	.st2{fill:#F2F2F2;}
	.st3{fill:#E6E6E6;}
	.st4{fill:#E6E6E6;stroke:#4D4D4D;stroke-width:0.75;stroke-linejoin:round;stroke-miterlimit:10;}
	.st5{fill:none;stroke:#F092A6;stroke-miterlimit:10;}
	.st6{fill:#F5EDA8;}
	.st7{fill:#E6E6E6;stroke:#666666;stroke-width:0.25;stroke-miterlimit:10;}
	.st8{fill:none;stroke:#4D4D4D;stroke-width:0.5;stroke-linecap:round;stroke-miterlimit:10;}
	.st9{fill:#666666;}
	.st10{fill:#FFFFFF;stroke:#F092A6;stroke-miterlimit:10;}
	.st11{fill:#FFB5C5;}
</style>
<g id="Layer_1">
	<path class="st0" d="M-213.5,72.7H-372c-2.3,0-4.1-1.8-4.1-4.1v-61c0-2.3,1.8-4.1,4.1-4.1h158.5c2.3,0,4.1,1.8,4.1,4.1v61
		C-209.4,70.9-211.2,72.7-213.5,72.7z"/>
	<path class="st1" d="M573.4,72.6H301.7c-2.3,0-4.1-1.8-4.1-4.1V5.6c0-2.3,1.8-4.1,4.1-4.1h271.7c2.3,0,4.1,1.8,4.1,4.1v62.8
		C577.6,70.7,575.7,72.6,573.4,72.6z"/>
	<path class="st0" d="M-24.8,307.8h-158.8c-2.3,0-4.1-1.8-4.1-4.1V103c0-2.3,1.8-4.1,4.1-4.1h158.8c2.3,0,4.1,1.8,4.1,4.1v200.7
		C-20.7,306-22.6,307.8-24.8,307.8z"/>
	<ellipse class="st2" cx="-327.9" cy="-170.1" rx="42.9" ry="29.3"/>
	<ellipse class="st2" cx="-285" cy="-180.6" rx="42.9" ry="29.3"/>
	<ellipse class="st2" cx="-246.7" cy="-167.1" rx="42.9" ry="29.3"/>
	<ellipse class="st3" cx="-261.6" cy="-154" rx="42.9" ry="29.3"/>
	<ellipse class="st2" cx="-262.7" cy="-151.3" rx="44.9" ry="29.3"/>
	<ellipse class="st3" cx="-316.5" cy="-161" rx="40" ry="25.2"/>
	<ellipse class="st2" cx="-317.6" cy="-155" rx="42.9" ry="29.3"/>
	<path class="st4" d="M-215.6,70.6h-158.8c-2.3,0-4.1-1.8-4.1-4.1V5.7c0-2.3,1.8-4.1,4.1-4.1h158.8c2.3,0,4.1,1.8,4.1,4.1v60.8
		C-211.5,68.7-213.4,70.6-215.6,70.6z"/>
	<line class="st5" x1="-378.2" y1="13" x2="-211.9" y2="13"/>
	<path class="st6" d="M-374.6,2h159.1c2,0,3.6,1.6,3.6,3.6V13h-166.3V5.6C-378.2,3.6-376.6,2-374.6,2z"/>
	<path class="st7" d="M-220.2,11.7h-5.1c-1,0-1.9-0.8-1.9-1.9V4.8c0-1,0.8-1.9,1.9-1.9h5.1c1,0,1.9,0.8,1.9,1.9v5.1
		C-218.3,10.9-219.2,11.7-220.2,11.7z"/>
	<line class="st8" x1="-225.8" y1="4.2" x2="-219.5" y2="10.6"/>
	<line class="st8" x1="-225.9" y1="10.4" x2="-219.5" y2="4.1"/>
	<path class="st7" d="M-236,11.8h-5.1c-1,0-1.9-0.8-1.9-1.9V4.8c0-1,0.8-1.9,1.9-1.9h5.1c1,0,1.9,0.8,1.9,1.9v5.1
		C-234.1,11-234.9,11.8-236,11.8z"/>
	<path class="st7" d="M-235.9,10.5h-5.2c-0.3,0-0.5-0.2-0.5-0.5V4.8c0-0.3,0.2-0.5,0.5-0.5h5.2c0.3,0,0.5,0.2,0.5,0.5V10
		C-235.4,10.2-235.7,10.5-235.9,10.5z"/>
	<path class="st9" d="M-235.6,5.8h-5.9c-0.1,0-0.3-0.1-0.3-0.3V4.4c0-0.1,0.1-0.3,0.3-0.3h5.9c0.1,0,0.3,0.1,0.3,0.3v1.1
		C-235.3,5.7-235.4,5.8-235.6,5.8z"/>
	<path class="st7" d="M-250.5,11.8h-5.1c-1,0-1.9-0.8-1.9-1.9V4.8c0-1,0.8-1.9,1.9-1.9h5.1c1,0,1.9,0.8,1.9,1.9v5.1
		C-248.7,11-249.5,11.8-250.5,11.8z"/>
	<path class="st9" d="M-250.2,10.5h-5.9c-0.1,0-0.3-0.1-0.3-0.3V9.1c0-0.1,0.1-0.3,0.3-0.3h5.9c0.1,0,0.3,0.1,0.3,0.3v1.1
		C-249.9,10.3-250,10.5-250.2,10.5z"/>
	<ellipse class="st10" cx="-328.6" cy="-60.6" rx="37.2" ry="34.3"/>
	<g>
		<defs>
			<path id="SVGID_1_" d="M-291.4-61.3c0,18.6-16.6,34.5-37.2,34.5c-20.5,0-37.2-15.9-37.2-34.5s16.6-33,37.2-33
				C-308.1-94.3-291.4-80-291.4-61.3z"/>
		</defs>
		<clipPath id="SVGID_00000004518983642703480650000005622524938141589438_">
			<use xlink:href="#SVGID_1_"  style="overflow:visible;"/>
		</clipPath>
		<g style="clip-path:url(#SVGID_00000004518983642703480650000005622524938141589438_);">
			
				<image style="overflow:visible;" width="369" height="474" xlink:href="../../../../stream art/silent.png"  transform="matrix(0.1427 0 0 0.1379 -354.3549 -92.1515)">
			</image>
		</g>
	</g>
	<path class="st4" d="M-27.8,305.8h-158.8c-2.3,0-4.1-1.8-4.1-4.1V101c0-2.3,1.8-4.1,4.1-4.1h158.8c2.3,0,4.1,1.8,4.1,4.1v200.7
		C-23.7,304-25.6,305.8-27.8,305.8z"/>
	<line class="st5" x1="-190.4" y1="108.4" x2="-24.1" y2="108.4"/>
	<path class="st6" d="M-186.8,97.3h159.1c2,0,3.6,1.6,3.6,3.6v7.4h-166.3v-7.4C-190.4,98.9-188.8,97.3-186.8,97.3z"/>
	<path class="st7" d="M-32.4,107.1h-5.1c-1,0-1.9-0.8-1.9-1.9v-5.1c0-1,0.8-1.9,1.9-1.9h5.1c1,0,1.9,0.8,1.9,1.9v5.1
		C-30.5,106.2-31.4,107.1-32.4,107.1z"/>
	<line class="st8" x1="-38" y1="99.5" x2="-31.7" y2="105.9"/>
	<line class="st8" x1="-38.1" y1="105.8" x2="-31.7" y2="99.4"/>
	<path class="st7" d="M-48.2,107.1h-5.1c-1,0-1.9-0.8-1.9-1.9v-5.1c0-1,0.8-1.9,1.9-1.9h5.1c1,0,1.9,0.8,1.9,1.9v5.1
		C-46.3,106.3-47.1,107.1-48.2,107.1z"/>
	<path class="st7" d="M-48.1,105.8h-5.2c-0.3,0-0.5-0.2-0.5-0.5v-5.2c0-0.3,0.2-0.5,0.5-0.5h5.2c0.3,0,0.5,0.2,0.5,0.5v5.2
		C-47.6,105.6-47.9,105.8-48.1,105.8z"/>
	<path class="st9" d="M-47.8,101.1h-5.9c-0.1,0-0.3-0.1-0.3-0.3v-1.1c0-0.1,0.1-0.3,0.3-0.3h5.9c0.1,0,0.3,0.1,0.3,0.3v1.1
		C-47.5,101-47.6,101.1-47.8,101.1z"/>
	<path class="st7" d="M-62.7,107.1h-5.1c-1,0-1.9-0.8-1.9-1.9v-5.1c0-1,0.8-1.9,1.9-1.9h5.1c1,0,1.9,0.8,1.9,1.9v5.1
		C-60.9,106.3-61.7,107.1-62.7,107.1z"/>
	<path class="st9" d="M-62.4,105.8h-5.9c-0.1,0-0.3-0.1-0.3-0.3v-1.1c0-0.1,0.1-0.3,0.3-0.3h5.9c0.1,0,0.3,0.1,0.3,0.3v1.1
		C-62.1,105.7-62.2,105.8-62.4,105.8z"/>
	<path class="st4" d="M569.2,69.8H300.1c-2.3,0-4.1-1.8-4.1-4.1V4.8c0-2.3,1.8-4.1,4.1-4.1h269.1c2.3,0,4.1,1.8,4.1,4.1v60.9
		C573.4,68,571.5,69.8,569.2,69.8z"/>
	<line class="st5" x1="296.5" y1="12.2" x2="573.1" y2="12.2"/>
	<path class="st11" d="M300.1,1.2h269.3c2,0,3.6,1.6,3.6,3.6v7.5H296.5V4.8C296.5,2.8,298.2,1.2,300.1,1.2z"/>
	<path class="st7" d="M567.9,11.6h-5.1c-1,0-1.9-0.8-1.9-1.9V4.7c0-1,0.8-1.9,1.9-1.9h5.1c1,0,1.9,0.8,1.9,1.9v5.1
		C569.8,10.8,569,11.6,567.9,11.6z"/>
	<line class="st8" x1="562.3" y1="4.1" x2="568.6" y2="10.5"/>
	<line class="st8" x1="562.2" y1="10.3" x2="568.6" y2="4"/>
	<path class="st7" d="M552.2,11.7h-5.1c-1,0-1.9-0.8-1.9-1.9V4.8c0-1,0.8-1.9,1.9-1.9h5.1c1,0,1.9,0.8,1.9,1.9v5.1
		C554,10.9,553.2,11.7,552.2,11.7z"/>
	<path class="st7" d="M552.2,10.4H547c-0.3,0-0.5-0.2-0.5-0.5V4.7c0-0.3,0.2-0.5,0.5-0.5h5.2c0.3,0,0.5,0.2,0.5,0.5v5.2
		C552.7,10.2,552.5,10.4,552.2,10.4z"/>
	<path class="st9" d="M552.5,5.7h-5.9c-0.1,0-0.3-0.1-0.3-0.3V4.4c0-0.1,0.1-0.3,0.3-0.3h5.9c0.1,0,0.3,0.1,0.3,0.3v1.1
		C552.8,5.6,552.7,5.7,552.5,5.7z"/>
	<path class="st7" d="M537.6,11.7h-5.1c-1,0-1.9-0.8-1.9-1.9V4.8c0-1,0.8-1.9,1.9-1.9h5.1c1,0,1.9,0.8,1.9,1.9v5.1
		C539.5,10.9,538.6,11.7,537.6,11.7z"/>
	<path class="st9" d="M538,10.4h-5.9c-0.1,0-0.3-0.1-0.3-0.3V9c0-0.1,0.1-0.3,0.3-0.3h5.9c0.1,0,0.3,0.1,0.3,0.3v1.1
		C538.2,10.3,538.1,10.4,538,10.4z"/>
</g>
<g id="Layer_2">
	<ellipse class="st10" cx="-230.7" cy="-60.6" rx="37.2" ry="34.3"/>
	<g>
		<defs>
			<path id="SVGID_00000139271824209433491690000005093473252597476482_" d="M-193.5-61.3c0,18.6-16.6,34.5-37.2,34.5
				s-37.2-15.9-37.2-34.5s16.6-33,37.2-33S-193.5-80-193.5-61.3z"/>
		</defs>
		<clipPath id="SVGID_00000002369791959867641010000008225305196849692070_">
			<use xlink:href="#SVGID_00000139271824209433491690000005093473252597476482_"  style="overflow:visible;"/>
		</clipPath>
		<g style="clip-path:url(#SVGID_00000002369791959867641010000008225305196849692070_);">
			
				<image style="overflow:visible;" width="369" height="474" xlink:href="../../../../stream art/talkin.png"  transform="matrix(0.1423 0 0 0.1394 -256.291 -92.4134)">
			</image>
		</g>
	</g>
</g>
<g id="Layer_4">
	<path class="st0" d="M166.3,105.1H7.5c-2.3,0-4.1-1.8-4.1-4.1V7.5c0-2.3,1.8-4.1,4.1-4.1h158.8c2.3,0,4.1,1.8,4.1,4.1V101
		C170.5,103.2,168.6,105.1,166.3,105.1z"/>
	<path class="st4" d="M164.4,102.9H5.6c-2.3,0-4.1-1.8-4.1-4.1v-93c0-2.3,1.8-4.1,4.1-4.1h158.8c2.3,0,4.1,1.8,4.1,4.1v93
		C168.5,101,166.6,102.9,164.4,102.9z"/>
	<line class="st5" x1="1.8" y1="13" x2="168.1" y2="13"/>
	<path class="st11" d="M5.4,2h159.1c2,0,3.6,1.6,3.6,3.6V13H1.8V5.6C1.8,3.6,3.4,2,5.4,2z"/>
	<path class="st7" d="M159.8,11.7h-5.1c-1,0-1.9-0.8-1.9-1.9V4.8c0-1,0.8-1.9,1.9-1.9h5.1c1,0,1.9,0.8,1.9,1.9v5.1
		C161.7,10.9,160.8,11.7,159.8,11.7z"/>
	<line class="st8" x1="154.2" y1="4.2" x2="160.5" y2="10.6"/>
	<line class="st8" x1="154.1" y1="10.4" x2="160.5" y2="4.1"/>
	<path class="st7" d="M144,11.8h-5.1c-1,0-1.9-0.8-1.9-1.9V4.8c0-1,0.8-1.9,1.9-1.9h5.1c1,0,1.9,0.8,1.9,1.9v5.1
		C145.9,11,145.1,11.8,144,11.8z"/>
	<path class="st7" d="M144.1,10.5h-5.2c-0.3,0-0.5-0.2-0.5-0.5V4.8c0-0.3,0.2-0.5,0.5-0.5h5.2c0.3,0,0.5,0.2,0.5,0.5V10
		C144.6,10.2,144.3,10.5,144.1,10.5z"/>
	<path class="st9" d="M144.4,5.8h-5.9c-0.1,0-0.3-0.1-0.3-0.3V4.4c0-0.1,0.1-0.3,0.3-0.3h5.9c0.1,0,0.3,0.1,0.3,0.3v1.1
		C144.7,5.7,144.6,5.8,144.4,5.8z"/>
	<path class="st7" d="M129.5,11.8h-5.1c-1,0-1.9-0.8-1.9-1.9V4.8c0-1,0.8-1.9,1.9-1.9h5.1c1,0,1.9,0.8,1.9,1.9v5.1
		C131.3,11,130.5,11.8,129.5,11.8z"/>
	<path class="st9" d="M129.8,10.5H124c-0.1,0-0.3-0.1-0.3-0.3V9.1c0-0.1,0.1-0.3,0.3-0.3h5.9c0.1,0,0.3,0.1,0.3,0.3v1.1
		C130.1,10.3,130,10.5,129.8,10.5z"/>
</g>
<g id="Layer_3">
	<path class="st0" d="M-23.9,72.6h-158.5c-2.3,0-4.1-1.8-4.1-4.1v-61c0-2.3,1.8-4.1,4.1-4.1h158.5c2.3,0,4.1,1.8,4.1,4.1v61
		C-19.8,70.7-21.7,72.6-23.9,72.6z"/>
	<path class="st4" d="M-25.6,70.6h-158.8c-2.3,0-4.1-1.8-4.1-4.1V5.7c-10-12-0.1-2.5,4.1-4.1h158.8c2.3,0,4.1,1.8,4.1,4.1v60.8
		C-21.5,68.7-23.4,70.6-25.6,70.6z"/>
	<line class="st5" x1="-188.2" y1="13" x2="-21.9" y2="13"/>
	<path class="st6" d="M-184.5,1.9h159.1c2,0,3.6,1.6,3.6,3.6v7.4h-166.3l-0.1-7.4C-198-5.8-189.3,3.4-184.5,1.9z"/>
	<path class="st7" d="M-30.2,11.7h-5.1c-1,0-1.9-0.8-1.9-1.9V4.8c0-1,0.8-1.9,1.9-1.9h5.1c1,0,1.9,0.8,1.9,1.9v5.1
		C-28.3,10.9-29.2,11.7-30.2,11.7z"/>
	<line class="st8" x1="-35.8" y1="4.2" x2="-29.5" y2="10.6"/>
	<line class="st8" x1="-35.9" y1="10.4" x2="-29.5" y2="4.1"/>
	<path class="st7" d="M-46,11.8h-5.1c-1,0-1.9-0.8-1.9-1.9V4.8c0-1,0.8-1.9,1.9-1.9h5.1c1,0,1.9,0.8,1.9,1.9v5.1
		C-44.1,11-44.9,11.8-46,11.8z"/>
	<path class="st7" d="M-45.9,10.5h-5.2c-0.3,0-0.5-0.2-0.5-0.5V4.8c0-0.3,0.2-0.5,0.5-0.5h5.2c0.3,0,0.5,0.2,0.5,0.5V10
		C-45.4,10.2-45.7,10.5-45.9,10.5z"/>
	<path class="st9" d="M-45.6,5.8h-5.9c-0.1,0-0.3-0.1-0.3-0.3V4.4c0-0.1,0.1-0.3,0.3-0.3h5.9c0.1,0,0.3,0.1,0.3,0.3v1.1
		C-45.3,5.7-45.4,5.8-45.6,5.8z"/>
	<path class="st7" d="M-60.5,11.8h-5.1c-1,0-1.9-0.8-1.9-1.9V4.8c0-1,0.8-1.9,1.9-1.9h5.1c1,0,1.9,0.8,1.9,1.9v5.1
		C-58.7,11-59.5,11.8-60.5,11.8z"/>
	<path class="st9" d="M-60.2,10.5H-66c-0.1,0-0.3-0.1-0.3-0.3V9.1c0-0.1,0.1-0.3,0.3-0.3h5.9c0.1,0,0.3,0.1,0.3,0.3v1.1
		C-59.9,10.3-60,10.5-60.2,10.5z"/>
</g>
</svg>
