<?xml version="1.0" encoding="utf-8"?>
<!-- Generator: Adobe Illustrator 27.5.0, SVG Export Plug-In . SVG Version: 6.00 Build 0)  -->
<svg version="1.1" xmlns="http://www.w3.org/2000/svg" xmlns:xlink="http://www.w3.org/1999/xlink" x="0px" y="0px"
	 viewBox="0 0 185.1 101.4" style="enable-background:new 0 0 185.1 101.4;" xml:space="preserve">
<style type="text/css">
	.st0{opacity:0.62;fill:#6298A8;}
	.st1{fill:#F2F2F2;}
	.st2{fill:#E6E6E6;}
	.st3{fill:#E6E6E6;stroke:#4D4D4D;stroke-width:0.75;stroke-linejoin:round;stroke-miterlimit:10;}
	.st4{fill:none;stroke:#F092A6;stroke-miterlimit:10;}
	.st5{fill:#F5EDA8;}
	.st6{fill:#E6E6E6;stroke:#666666;stroke-width:0.25;stroke-miterlimit:10;}
	.st7{fill:none;stroke:#4D4D4D;stroke-width:0.5;stroke-linecap:round;stroke-miterlimit:10;}
	.st8{fill:#666666;}
	.st9{fill:#FFFFFF;stroke:#F092A6;stroke-miterlimit:10;}
</style>
<g id="Layer_1">
	<path class="st0" d="M166.5,289.8H8c-2.3,0-4.1-1.8-4.1-4.1v-61c0-2.3,1.8-4.1,4.1-4.1h158.5c2.3,0,4.1,1.8,4.1,4.1v61
		C170.6,288,168.8,289.8,166.5,289.8z"/>
	<path class="st0" d="M953.4,289.6H681.7c-2.3,0-4.1-1.8-4.1-4.1v-62.8c0-2.3,1.8-4.1,4.1-4.1h271.7c2.3,0,4.1,1.8,4.1,4.1v62.8
		C957.6,287.8,955.7,289.6,953.4,289.6z"/>
	<path class="st0" d="M355.2,524.9H196.4c-2.3,0-4.1-1.8-4.1-4.1V320.1c0-2.3,1.8-4.1,4.1-4.1h158.8c2.3,0,4.1,1.8,4.1,4.1v200.7
		C359.3,523.1,357.4,524.9,355.2,524.9z"/>
	<ellipse class="st1" cx="52.1" cy="47" rx="42.9" ry="29.3"/>
	<ellipse class="st1" cx="95" cy="36.5" rx="42.9" ry="29.3"/>
	<ellipse class="st1" cx="133.3" cy="50" rx="42.9" ry="29.3"/>
	<ellipse class="st2" cx="118.4" cy="63.1" rx="42.9" ry="29.3"/>
	<ellipse class="st1" cx="117.3" cy="65.8" rx="44.9" ry="29.3"/>
	<ellipse class="st2" cx="63.5" cy="56.1" rx="40" ry="25.2"/>
	<ellipse class="st1" cx="62.4" cy="62.1" rx="42.9" ry="29.3"/>
	<path class="st3" d="M164.4,287.6H5.6c-2.3,0-4.1-1.8-4.1-4.1v-60.8c0-2.3,1.8-4.1,4.1-4.1h158.8c2.3,0,4.1,1.8,4.1,4.1v60.8
		C168.5,285.8,166.6,287.6,164.4,287.6z"/>
	<line class="st4" x1="1.8" y1="230.1" x2="168.1" y2="230.1"/>
	<path class="st5" d="M5.4,219.1h159.1c2,0,3.6,1.6,3.6,3.6v7.4H1.8v-7.4C1.8,220.7,3.4,219.1,5.4,219.1z"/>
	<path class="st6" d="M159.8,228.8h-5.1c-1,0-1.9-0.8-1.9-1.9v-5.1c0-1,0.8-1.9,1.9-1.9h5.1c1,0,1.9,0.8,1.9,1.9v5.1
		C161.7,228,160.8,228.8,159.8,228.8z"/>
	<line class="st7" x1="154.2" y1="221.3" x2="160.5" y2="227.7"/>
	<line class="st7" x1="154.1" y1="227.5" x2="160.5" y2="221.2"/>
	<path class="st6" d="M144,228.9h-5.1c-1,0-1.9-0.8-1.9-1.9v-5.1c0-1,0.8-1.9,1.9-1.9h5.1c1,0,1.9,0.8,1.9,1.9v5.1
		C145.9,228.1,145.1,228.9,144,228.9z"/>
	<path class="st6" d="M144.1,227.5h-5.2c-0.3,0-0.5-0.2-0.5-0.5v-5.2c0-0.3,0.2-0.5,0.5-0.5h5.2c0.3,0,0.5,0.2,0.5,0.5v5.2
		C144.6,227.3,144.3,227.5,144.1,227.5z"/>
	<path class="st8" d="M144.4,222.9h-5.9c-0.1,0-0.3-0.1-0.3-0.3v-1.1c0-0.1,0.1-0.3,0.3-0.3h5.9c0.1,0,0.3,0.1,0.3,0.3v1.1
		C144.7,222.7,144.6,222.9,144.4,222.9z"/>
	<path class="st6" d="M129.5,228.9h-5.1c-1,0-1.9-0.8-1.9-1.9v-5.1c0-1,0.8-1.9,1.9-1.9h5.1c1,0,1.9,0.8,1.9,1.9v5.1
		C131.3,228.1,130.5,228.9,129.5,228.9z"/>
	<path class="st8" d="M129.8,227.5H124c-0.1,0-0.3-0.1-0.3-0.3v-1.1c0-0.1,0.1-0.3,0.3-0.3h5.9c0.1,0,0.3,0.1,0.3,0.3v1.1
		C130.1,227.4,130,227.5,129.8,227.5z"/>
	<ellipse class="st9" cx="51.4" cy="156.5" rx="37.2" ry="34.3"/>
	<g>
		<defs>
			<path id="SVGID_1_" d="M88.6,155.7c0,18.6-16.6,34.5-37.2,34.5s-37.2-15.9-37.2-34.5s16.6-33,37.2-33S88.6,137.1,88.6,155.7z"/>
		</defs>
		<clipPath id="SVGID_00000109730376626888416650000013361622738026861467_">
			<use xlink:href="#SVGID_1_"  style="overflow:visible;"/>
		</clipPath>
		<g style="clip-path:url(#SVGID_00000109730376626888416650000013361622738026861467_);">
			
				<image style="overflow:visible;" width="369" height="474" xlink:href="../../../../stream art/silent.png"  transform="matrix(0.1427 0 0 0.1379 25.6457 124.9329)">
			</image>
		</g>
	</g>
	<path class="st3" d="M352.2,522.9H193.4c-2.3,0-4.1-1.8-4.1-4.1V318.1c0-2.3,1.8-4.1,4.1-4.1h158.8c2.3,0,4.1,1.8,4.1,4.1v200.7
		C356.3,521.1,354.4,522.9,352.2,522.9z"/>
	<line class="st4" x1="189.6" y1="325.5" x2="355.9" y2="325.5"/>
	<path class="st5" d="M193.2,314.4h159.1c2,0,3.6,1.6,3.6,3.6v7.4H189.6V318C189.6,316,191.2,314.4,193.2,314.4z"/>
	<path class="st6" d="M347.6,324.2h-5.1c-1,0-1.9-0.8-1.9-1.9v-5.1c0-1,0.8-1.9,1.9-1.9h5.1c1,0,1.9,0.8,1.9,1.9v5.1
		C349.5,323.3,348.6,324.2,347.6,324.2z"/>
	<line class="st7" x1="342" y1="316.6" x2="348.3" y2="323"/>
	<line class="st7" x1="341.9" y1="322.8" x2="348.3" y2="316.5"/>
	<path class="st6" d="M331.8,324.2h-5.1c-1,0-1.9-0.8-1.9-1.9v-5.1c0-1,0.8-1.9,1.9-1.9h5.1c1,0,1.9,0.8,1.9,1.9v5.1
		C333.7,323.4,332.9,324.2,331.8,324.2z"/>
	<path class="st6" d="M331.9,322.9h-5.2c-0.3,0-0.5-0.2-0.5-0.5v-5.2c0-0.3,0.2-0.5,0.5-0.5h5.2c0.3,0,0.5,0.2,0.5,0.5v5.2
		C332.4,322.7,332.1,322.9,331.9,322.9z"/>
	<path class="st8" d="M332.2,318.2h-5.9c-0.1,0-0.3-0.1-0.3-0.3v-1.1c0-0.1,0.1-0.3,0.3-0.3h5.9c0.1,0,0.3,0.1,0.3,0.3v1.1
		C332.5,318.1,332.4,318.2,332.2,318.2z"/>
	<path class="st6" d="M317.3,324.2h-5.1c-1,0-1.9-0.8-1.9-1.9v-5.1c0-1,0.8-1.9,1.9-1.9h5.1c1,0,1.9,0.8,1.9,1.9v5.1
		C319.1,323.4,318.3,324.2,317.3,324.2z"/>
	<path class="st8" d="M317.6,322.9h-5.9c-0.1,0-0.3-0.1-0.3-0.3v-1.1c0-0.1,0.1-0.3,0.3-0.3h5.9c0.1,0,0.3,0.1,0.3,0.3v1.1
		C317.9,322.8,317.8,322.9,317.6,322.9z"/>
	<path class="st3" d="M949.2,286.9H680.1c-2.3,0-4.1-1.8-4.1-4.1v-60.9c0-2.3,1.8-4.1,4.1-4.1h269.1c2.3,0,4.1,1.8,4.1,4.1v60.9
		C953.4,285.1,951.5,286.9,949.2,286.9z"/>
	<line class="st4" x1="676.6" y1="229.3" x2="953.1" y2="229.3"/>
	<path class="st5" d="M680.1,218.2h269.3c2,0,3.6,1.6,3.6,3.6v7.5H676.6v-7.5C676.6,219.8,678.2,218.2,680.1,218.2z"/>
	<path class="st6" d="M947.9,228.7h-5.1c-1,0-1.9-0.8-1.9-1.9v-5.1c0-1,0.8-1.9,1.9-1.9h5.1c1,0,1.9,0.8,1.9,1.9v5.1
		C949.8,227.9,949,228.7,947.9,228.7z"/>
	<line class="st7" x1="942.3" y1="221.2" x2="948.6" y2="227.6"/>
	<line class="st7" x1="942.2" y1="227.4" x2="948.6" y2="221.1"/>
	<path class="st6" d="M932.2,228.8h-5.1c-1,0-1.9-0.8-1.9-1.9v-5.1c0-1,0.8-1.9,1.9-1.9h5.1c1,0,1.9,0.8,1.9,1.9v5.1
		C934,228,933.2,228.8,932.2,228.8z"/>
	<path class="st6" d="M932.2,227.5H927c-0.3,0-0.5-0.2-0.5-0.5v-5.2c0-0.3,0.2-0.5,0.5-0.5h5.2c0.3,0,0.5,0.2,0.5,0.5v5.2
		C932.7,227.2,932.5,227.5,932.2,227.5z"/>
	<path class="st8" d="M932.5,222.8h-5.9c-0.1,0-0.3-0.1-0.3-0.3v-1.1c0-0.1,0.1-0.3,0.3-0.3h5.9c0.1,0,0.3,0.1,0.3,0.3v1.1
		C932.8,222.7,932.7,222.8,932.5,222.8z"/>
	<path class="st6" d="M917.6,228.8h-5.1c-1,0-1.9-0.8-1.9-1.9v-5.1c0-1,0.8-1.9,1.9-1.9h5.1c1,0,1.9,0.8,1.9,1.9v5.1
		C919.5,228,918.6,228.8,917.6,228.8z"/>
	<path class="st8" d="M918,227.5h-5.9c-0.1,0-0.3-0.1-0.3-0.3v-1.1c0-0.1,0.1-0.3,0.3-0.3h5.9c0.1,0,0.3,0.1,0.3,0.3v1.1
		C918.2,227.3,918.1,227.5,918,227.5z"/>
</g>
<g id="Layer_2">
	<ellipse class="st9" cx="149.3" cy="156.5" rx="37.2" ry="34.3"/>
	<g>
		<defs>
			<path id="SVGID_00000075141473396347288910000008652149985130759588_" d="M186.5,155.7c0,18.6-16.6,34.5-37.2,34.5
				s-37.2-15.9-37.2-34.5s16.6-33,37.2-33S186.5,137.1,186.5,155.7z"/>
		</defs>
		<clipPath id="SVGID_00000091719925465787410210000004612061865668558521_">
			<use xlink:href="#SVGID_00000075141473396347288910000008652149985130759588_"  style="overflow:visible;"/>
		</clipPath>
		<g style="clip-path:url(#SVGID_00000091719925465787410210000004612061865668558521_);">
			
				<image style="overflow:visible;" width="369" height="474" xlink:href="../../../../stream art/talkin.png"  transform="matrix(0.1423 0 0 0.1394 123.7096 124.671)">
			</image>
		</g>
	</g>
</g>
<g id="Layer_4">
	<path class="st0" d="M546.3,322.2H387.5c-2.3,0-4.1-1.8-4.1-4.1v-93.5c0-2.3,1.8-4.1,4.1-4.1h158.8c2.3,0,4.1,1.8,4.1,4.1V318
		C550.5,320.3,548.6,322.2,546.3,322.2z"/>
	<path class="st3" d="M544.4,319.9H385.6c-2.3,0-4.1-1.8-4.1-4.1v-93c0-2.3,1.8-4.1,4.1-4.1h158.8c2.3,0,4.1,1.8,4.1,4.1v93
		C548.5,318.1,546.6,319.9,544.4,319.9z"/>
	<line class="st4" x1="381.8" y1="230.1" x2="548.1" y2="230.1"/>
	<path class="st5" d="M385.4,219.1h159.1c2,0,3.6,1.6,3.6,3.6v7.4H381.8v-7.4C381.8,220.7,383.4,219.1,385.4,219.1z"/>
	<path class="st6" d="M539.8,228.8h-5.1c-1,0-1.9-0.8-1.9-1.9v-5.1c0-1,0.8-1.9,1.9-1.9h5.1c1,0,1.9,0.8,1.9,1.9v5.1
		C541.7,228,540.8,228.8,539.8,228.8z"/>
	<line class="st7" x1="534.2" y1="221.3" x2="540.5" y2="227.7"/>
	<line class="st7" x1="534.1" y1="227.5" x2="540.5" y2="221.2"/>
	<path class="st6" d="M524,228.9h-5.1c-1,0-1.9-0.8-1.9-1.9v-5.1c0-1,0.8-1.9,1.9-1.9h5.1c1,0,1.9,0.8,1.9,1.9v5.1
		C525.9,228.1,525.1,228.9,524,228.9z"/>
	<path class="st6" d="M524.1,227.5h-5.2c-0.3,0-0.5-0.2-0.5-0.5v-5.2c0-0.3,0.2-0.5,0.5-0.5h5.2c0.3,0,0.5,0.2,0.5,0.5v5.2
		C524.6,227.3,524.3,227.5,524.1,227.5z"/>
	<path class="st8" d="M524.4,222.9h-5.9c-0.1,0-0.3-0.1-0.3-0.3v-1.1c0-0.1,0.1-0.3,0.3-0.3h5.9c0.1,0,0.3,0.1,0.3,0.3v1.1
		C524.7,222.7,524.6,222.9,524.4,222.9z"/>
	<path class="st6" d="M509.5,228.9h-5.1c-1,0-1.9-0.8-1.9-1.9v-5.1c0-1,0.8-1.9,1.9-1.9h5.1c1,0,1.9,0.8,1.9,1.9v5.1
		C511.3,228.1,510.5,228.9,509.5,228.9z"/>
	<path class="st8" d="M509.8,227.5H504c-0.1,0-0.3-0.1-0.3-0.3v-1.1c0-0.1,0.1-0.3,0.3-0.3h5.9c0.1,0,0.3,0.1,0.3,0.3v1.1
		C510.1,227.4,510,227.5,509.8,227.5z"/>
</g>
<g id="Layer_3">
	<path class="st0" d="M356.1,289.6H197.5c-2.3,0-4.1-1.8-4.1-4.1v-61c0-2.3,1.8-4.1,4.1-4.1h158.5c2.3,0,4.1,1.8,4.1,4.1v61
		C360.2,287.8,358.3,289.6,356.1,289.6z"/>
	<path class="st3" d="M354.4,287.6H195.6c-2.3,0-4.1-1.8-4.1-4.1v-60.8c-10-12-0.1-2.5,4.1-4.1h158.8c2.3,0,4.1,1.8,4.1,4.1v60.8
		C358.5,285.8,356.6,287.6,354.4,287.6z"/>
	<line class="st4" x1="191.8" y1="230.1" x2="358.1" y2="230.1"/>
	<path class="st5" d="M195.5,219h159.1c2,0,3.6,1.6,3.6,3.6v7.4H191.9l-0.1-7.4C182,211.2,190.7,220.5,195.5,219z"/>
	<path class="st6" d="M349.8,228.8h-5.1c-1,0-1.9-0.8-1.9-1.9v-5.1c0-1,0.8-1.9,1.9-1.9h5.1c1,0,1.9,0.8,1.9,1.9v5.1
		C351.7,228,350.8,228.8,349.8,228.8z"/>
	<line class="st7" x1="344.2" y1="221.3" x2="350.5" y2="227.7"/>
	<line class="st7" x1="344.1" y1="227.5" x2="350.5" y2="221.2"/>
	<path class="st6" d="M334,228.9h-5.1c-1,0-1.9-0.8-1.9-1.9v-5.1c0-1,0.8-1.9,1.9-1.9h5.1c1,0,1.9,0.8,1.9,1.9v5.1
		C335.9,228.1,335.1,228.9,334,228.9z"/>
	<path class="st6" d="M334.1,227.5h-5.2c-0.3,0-0.5-0.2-0.5-0.5v-5.2c0-0.3,0.2-0.5,0.5-0.5h5.2c0.3,0,0.5,0.2,0.5,0.5v5.2
		C334.6,227.3,334.3,227.5,334.1,227.5z"/>
	<path class="st8" d="M334.4,222.9h-5.9c-0.1,0-0.3-0.1-0.3-0.3v-1.1c0-0.1,0.1-0.3,0.3-0.3h5.9c0.1,0,0.3,0.1,0.3,0.3v1.1
		C334.7,222.7,334.6,222.9,334.4,222.9z"/>
	<path class="st6" d="M319.5,228.9h-5.1c-1,0-1.9-0.8-1.9-1.9v-5.1c0-1,0.8-1.9,1.9-1.9h5.1c1,0,1.9,0.8,1.9,1.9v5.1
		C321.3,228.1,320.5,228.9,319.5,228.9z"/>
	<path class="st8" d="M319.8,227.5H314c-0.1,0-0.3-0.1-0.3-0.3v-1.1c0-0.1,0.1-0.3,0.3-0.3h5.9c0.1,0,0.3,0.1,0.3,0.3v1.1
		C320.1,227.4,320,227.5,319.8,227.5z"/>
</g>
</svg>
