<?xml version="1.0" encoding="utf-8"?>
<!-- Generator: Adobe Illustrator 27.5.0, SVG Export Plug-In . SVG Version: 6.00 Build 0)  -->
<svg version="1.1" xmlns="http://www.w3.org/2000/svg" xmlns:xlink="http://www.w3.org/1999/xlink" x="0px" y="0px"
	 viewBox="0 0 170 13" style="enable-background:new 0 0 170 13;" xml:space="preserve">
<style type="text/css">
	.st0{opacity:0.62;fill:#43A353;}
	.st1{fill:#F2F2F2;}
	.st2{fill:#E6E6E6;}
	.st3{fill:#E6E6E6;stroke:#4D4D4D;stroke-width:0.75;stroke-linejoin:round;stroke-miterlimit:10;}
	.st4{fill:none;stroke:#F092A6;stroke-miterlimit:10;}
	.st5{fill:#FFB5C5;}
	.st6{fill:#E6E6E6;stroke:#666666;stroke-width:0.25;stroke-miterlimit:10;}
	.st7{fill:none;stroke:#4D4D4D;stroke-width:0.5;stroke-linecap:round;stroke-miterlimit:10;}
	.st8{fill:#666666;}
	.st9{fill:#FFFFFF;stroke:#F092A6;stroke-miterlimit:10;}
	.st10{fill:#9E4A6D;}
</style>
<g id="Layer_1">
	<path class="st0" d="M-216.2,307.8H-375c-2.3,0-4.1-1.8-4.1-4.1V103c0-2.3,1.8-4.1,4.1-4.1h158.8c2.3,0,4.1,1.8,4.1,4.1v200.7
		C-212.1,306-213.9,307.8-216.2,307.8z"/>
	<ellipse class="st1" cx="-519.2" cy="-170.1" rx="42.9" ry="29.3"/>
	<ellipse class="st1" cx="-476.3" cy="-180.6" rx="42.9" ry="29.3"/>
	<ellipse class="st1" cx="-438" cy="-167.1" rx="42.9" ry="29.3"/>
	<ellipse class="st2" cx="-452.9" cy="-154" rx="42.9" ry="29.3"/>
	<ellipse class="st1" cx="-454.1" cy="-151.3" rx="44.9" ry="29.3"/>
	<ellipse class="st2" cx="-507.8" cy="-161" rx="40" ry="25.2"/>
	<ellipse class="st1" cx="-508.9" cy="-155" rx="42.9" ry="29.3"/>
	<path class="st3" d="M-407,70.6h-158.8c-2.3,0-4.1-1.8-4.1-4.1V5.7c0-2.3,1.8-4.1,4.1-4.1H-407c2.3,0,4.1,1.8,4.1,4.1v60.8
		C-402.9,68.7-404.7,70.6-407,70.6z"/>
	<line class="st4" x1="-569.5" y1="13" x2="-403.2" y2="13"/>
	<path class="st5" d="M-565.9,2h159.1c2,0,3.6,1.6,3.6,3.6V13h-166.3V5.6C-569.5,3.6-567.9,2-565.9,2z"/>
	<path class="st6" d="M-411.5,11.7h-5.1c-1,0-1.9-0.8-1.9-1.9V4.8c0-1,0.8-1.9,1.9-1.9h5.1c1,0,1.9,0.8,1.9,1.9v5.1
		C-409.7,10.9-410.5,11.7-411.5,11.7z"/>
	<line class="st7" x1="-417.2" y1="4.2" x2="-410.8" y2="10.6"/>
	<line class="st7" x1="-417.2" y1="10.4" x2="-410.8" y2="4.1"/>
	<path class="st6" d="M-427.3,11.8h-5.1c-1,0-1.9-0.8-1.9-1.9V4.8c0-1,0.8-1.9,1.9-1.9h5.1c1,0,1.9,0.8,1.9,1.9v5.1
		C-425.4,11-426.3,11.8-427.3,11.8z"/>
	<path class="st6" d="M-427.3,10.5h-5.2c-0.3,0-0.5-0.2-0.5-0.5V4.8c0-0.3,0.2-0.5,0.5-0.5h5.2c0.3,0,0.5,0.2,0.5,0.5V10
		C-426.8,10.2-427,10.5-427.3,10.5z"/>
	<path class="st8" d="M-426.9,5.8h-5.9c-0.1,0-0.3-0.1-0.3-0.3V4.4c0-0.1,0.1-0.3,0.3-0.3h5.9c0.1,0,0.3,0.1,0.3,0.3v1.1
		C-426.7,5.7-426.8,5.8-426.9,5.8z"/>
	<path class="st6" d="M-441.9,11.8h-5.1c-1,0-1.9-0.8-1.9-1.9V4.8c0-1,0.8-1.9,1.9-1.9h5.1c1,0,1.9,0.8,1.9,1.9v5.1
		C-440,11-440.8,11.8-441.9,11.8z"/>
	<path class="st8" d="M-441.5,10.5h-5.9c-0.1,0-0.3-0.1-0.3-0.3V9.1c0-0.1,0.1-0.3,0.3-0.3h5.9c0.1,0,0.3,0.1,0.3,0.3v1.1
		C-441.2,10.3-441.4,10.5-441.5,10.5z"/>
	<ellipse class="st9" cx="-519.9" cy="-60.6" rx="37.2" ry="34.3"/>
	<g>
		<defs>
			<path id="SVGID_1_" d="M-482.7-61.3c0,18.6-16.6,34.5-37.2,34.5c-20.5,0-37.2-15.9-37.2-34.5s16.6-33,37.2-33
				C-499.4-94.3-482.7-80-482.7-61.3z"/>
		</defs>
		<clipPath id="SVGID_00000127734414853593469160000014028076286766683804_">
			<use xlink:href="#SVGID_1_"  style="overflow:visible;"/>
		</clipPath>
		<g style="clip-path:url(#SVGID_00000127734414853593469160000014028076286766683804_);">
			
				<image style="overflow:visible;" width="369" height="474" xlink:href="../../../../stream art/silent.png"  transform="matrix(0.1427 0 0 0.1379 -545.689 -92.1515)">
			</image>
		</g>
	</g>
	<path class="st3" d="M-219.2,305.8H-378c-2.3,0-4.1-1.8-4.1-4.1V101c0-2.3,1.8-4.1,4.1-4.1h158.8c2.3,0,4.1,1.8,4.1,4.1v200.7
		C-215.1,304-216.9,305.8-219.2,305.8z"/>
	<line class="st4" x1="-381.7" y1="108.4" x2="-215.4" y2="108.4"/>
	<path class="st5" d="M-378.1,97.3H-219c2,0,3.6,1.6,3.6,3.6v7.4h-166.3v-7.4C-381.7,98.9-380.1,97.3-378.1,97.3z"/>
	<path class="st6" d="M-223.7,107.1h-5.1c-1,0-1.9-0.8-1.9-1.9v-5.1c0-1,0.8-1.9,1.9-1.9h5.1c1,0,1.9,0.8,1.9,1.9v5.1
		C-221.9,106.2-222.7,107.1-223.7,107.1z"/>
	<line class="st7" x1="-229.4" y1="99.5" x2="-223" y2="105.9"/>
	<line class="st7" x1="-229.4" y1="105.8" x2="-223" y2="99.4"/>
	<path class="st6" d="M-239.5,107.1h-5.1c-1,0-1.9-0.8-1.9-1.9v-5.1c0-1,0.8-1.9,1.9-1.9h5.1c1,0,1.9,0.8,1.9,1.9v5.1
		C-237.6,106.3-238.5,107.1-239.5,107.1z"/>
	<path class="st6" d="M-239.5,105.8h-5.2c-0.3,0-0.5-0.2-0.5-0.5v-5.2c0-0.3,0.2-0.5,0.5-0.5h5.2c0.3,0,0.5,0.2,0.5,0.5v5.2
		C-239,105.6-239.2,105.8-239.5,105.8z"/>
	<path class="st8" d="M-239.1,101.1h-5.9c-0.1,0-0.3-0.1-0.3-0.3v-1.1c0-0.1,0.1-0.3,0.3-0.3h5.9c0.1,0,0.3,0.1,0.3,0.3v1.1
		C-238.9,101-239,101.1-239.1,101.1z"/>
	<path class="st6" d="M-254.1,107.1h-5.1c-1,0-1.9-0.8-1.9-1.9v-5.1c0-1,0.8-1.9,1.9-1.9h5.1c1,0,1.9,0.8,1.9,1.9v5.1
		C-252.2,106.3-253,107.1-254.1,107.1z"/>
	<path class="st8" d="M-253.7,105.8h-5.9c-0.1,0-0.3-0.1-0.3-0.3v-1.1c0-0.1,0.1-0.3,0.3-0.3h5.9c0.1,0,0.3,0.1,0.3,0.3v1.1
		C-253.4,105.7-253.6,105.8-253.7,105.8z"/>
	<line class="st4" x1="-0.4" y1="11.7" x2="170.4" y2="11.7"/>
	<rect x="-0.4" y="-0.1" class="st5" width="170.8" height="11.7"/>
	<path class="st6" d="M161.9,10.3h-5.3c-1,0-1.9-0.8-1.9-1.9V2.8c0-1,0.8-1.9,1.9-1.9h5.3c1,0,1.9,0.8,1.9,1.9v5.7
		C163.8,9.5,163,10.3,161.9,10.3z"/>
	<line class="st7" x1="156.1" y1="2.3" x2="162.6" y2="9.1"/>
	<line class="st7" x1="156" y1="8.9" x2="162.6" y2="2.2"/>
	<path class="st6" d="M145.7,10.4h-5.3c-1,0-1.9-0.8-1.9-1.9V2.8c0-1,0.8-1.9,1.9-1.9h5.3c1,0,1.9,0.8,1.9,1.9v5.7
		C147.6,9.5,146.8,10.4,145.7,10.4z"/>
	<path class="st6" d="M145.7,9h-5.3c-0.3,0-0.5-0.2-0.5-0.5V2.9c0-0.3,0.2-0.5,0.5-0.5h5.3c0.3,0,0.5,0.2,0.5,0.5v5.6
		C146.2,8.7,146,9,145.7,9z"/>
	<path class="st8" d="M146.1,4h-6c-0.1,0-0.3-0.1-0.3-0.3V2.5c0-0.1,0.1-0.3,0.3-0.3h6c0.1,0,0.3,0.1,0.3,0.3v1.2
		C146.3,3.9,146.2,4,146.1,4z"/>
	<path class="st6" d="M130.8,10.4h-5.3c-1,0-1.9-0.8-1.9-1.9V2.8c0-1,0.8-1.9,1.9-1.9h5.3c1,0,1.9,0.8,1.9,1.9v5.7
		C132.6,9.5,131.8,10.4,130.8,10.4z"/>
	<path class="st8" d="M131.1,9h-6c-0.1,0-0.3-0.1-0.3-0.3V7.5c0-0.1,0.1-0.3,0.3-0.3h6c0.1,0,0.3,0.1,0.3,0.3v1.2
		C131.4,8.8,131.2,9,131.1,9z"/>
</g>
<g id="Layer_2">
	<ellipse class="st9" cx="-422" cy="-60.6" rx="37.2" ry="34.3"/>
	<g>
		<defs>
			<path id="SVGID_00000041285119000233977530000001561992755161157801_" d="M-384.8-61.3c0,18.6-16.6,34.5-37.2,34.5
				c-20.5,0-37.2-15.9-37.2-34.5s16.6-33,37.2-33C-401.4-94.3-384.8-80-384.8-61.3z"/>
		</defs>
		<clipPath id="SVGID_00000172399215728125844200000017617295916057806762_">
			<use xlink:href="#SVGID_00000041285119000233977530000001561992755161157801_"  style="overflow:visible;"/>
		</clipPath>
		<g style="clip-path:url(#SVGID_00000172399215728125844200000017617295916057806762_);">
			
				<image style="overflow:visible;" width="369" height="474" xlink:href="../../../../stream art/talkin.png"  transform="matrix(0.1423 0 0 0.1394 -447.6251 -92.4134)">
			</image>
		</g>
	</g>
</g>
<g id="Layer_4">
	<path class="st0" d="M-25,105.1h-158.8c-2.3,0-4.1-1.8-4.1-4.1V7.5c0-2.3,1.8-4.1,4.1-4.1H-25c2.3,0,4.1,1.8,4.1,4.1V101
		C-20.9,103.2-22.7,105.1-25,105.1z"/>
	<path class="st3" d="M-27,102.9h-158.8c-2.3,0-4.1-1.8-4.1-4.1v-93c0-2.3,1.8-4.1,4.1-4.1H-27c2.3,0,4.1,1.8,4.1,4.1v93
		C-22.9,101-24.7,102.9-27,102.9z"/>
	<line class="st4" x1="-189.5" y1="13" x2="-23.2" y2="13"/>
	<path class="st10" d="M-185.9,2h159.1c2,0,3.6,1.6,3.6,3.6V13h-166.3V5.6C-189.5,3.6-187.9,2-185.9,2z"/>
	<path class="st6" d="M-31.5,11.7h-5.1c-1,0-1.9-0.8-1.9-1.9V4.8c0-1,0.8-1.9,1.9-1.9h5.1c1,0,1.9,0.8,1.9,1.9v5.1
		C-29.7,10.9-30.5,11.7-31.5,11.7z"/>
	<line class="st7" x1="-37.2" y1="4.2" x2="-30.8" y2="10.6"/>
	<line class="st7" x1="-37.2" y1="10.4" x2="-30.8" y2="4.1"/>
	<path class="st6" d="M-47.3,11.8h-5.1c-1,0-1.9-0.8-1.9-1.9V4.8c0-1,0.8-1.9,1.9-1.9h5.1c1,0,1.9,0.8,1.9,1.9v5.1
		C-45.4,11-46.3,11.8-47.3,11.8z"/>
	<path class="st6" d="M-47.3,10.5h-5.2c-0.3,0-0.5-0.2-0.5-0.5V4.8c0-0.3,0.2-0.5,0.5-0.5h5.2c0.3,0,0.5,0.2,0.5,0.5V10
		C-46.8,10.2-47,10.5-47.3,10.5z"/>
	<path class="st8" d="M-46.9,5.8h-5.9c-0.1,0-0.3-0.1-0.3-0.3V4.4c0-0.1,0.1-0.3,0.3-0.3h5.9c0.1,0,0.3,0.1,0.3,0.3v1.1
		C-46.7,5.7-46.8,5.8-46.9,5.8z"/>
	<path class="st6" d="M-61.9,11.8H-67c-1,0-1.9-0.8-1.9-1.9V4.8c0-1,0.8-1.9,1.9-1.9h5.1c1,0,1.9,0.8,1.9,1.9v5.1
		C-60,11-60.8,11.8-61.9,11.8z"/>
	<path class="st8" d="M-61.5,10.5h-5.9c-0.1,0-0.3-0.1-0.3-0.3V9.1c0-0.1,0.1-0.3,0.3-0.3h5.9c0.1,0,0.3,0.1,0.3,0.3v1.1
		C-61.2,10.3-61.4,10.5-61.5,10.5z"/>
</g>
<g id="Layer_3">
	<path class="st3" d="M-217,70.6h-158.8c-2.3,0-4.1-1.8-4.1-4.1V5.7c-10-12-0.1-2.5,4.1-4.1H-217c2.3,0,4.1,1.8,4.1,4.1v60.8
		C-212.9,68.7-214.7,70.6-217,70.6z"/>
	<line class="st4" x1="-379.5" y1="13" x2="-213.2" y2="13"/>
	<path class="st5" d="M-375.9,1.9h159.1c2,0,3.6,1.6,3.6,3.6v7.4h-166.3l-0.1-7.4C-389.3-5.8-380.6,3.4-375.9,1.9z"/>
	<path class="st6" d="M-221.5,11.7h-5.1c-1,0-1.9-0.8-1.9-1.9V4.8c0-1,0.8-1.9,1.9-1.9h5.1c1,0,1.9,0.8,1.9,1.9v5.1
		C-219.7,10.9-220.5,11.7-221.5,11.7z"/>
	<line class="st7" x1="-227.2" y1="4.2" x2="-220.8" y2="10.6"/>
	<line class="st7" x1="-227.2" y1="10.4" x2="-220.8" y2="4.1"/>
	<path class="st6" d="M-237.3,11.8h-5.1c-1,0-1.9-0.8-1.9-1.9V4.8c0-1,0.8-1.9,1.9-1.9h5.1c1,0,1.9,0.8,1.9,1.9v5.1
		C-235.4,11-236.3,11.8-237.3,11.8z"/>
	<path class="st6" d="M-237.3,10.5h-5.2c-0.3,0-0.5-0.2-0.5-0.5V4.8c0-0.3,0.2-0.5,0.5-0.5h5.2c0.3,0,0.5,0.2,0.5,0.5V10
		C-236.8,10.2-237,10.5-237.3,10.5z"/>
	<path class="st8" d="M-236.9,5.8h-5.9c-0.1,0-0.3-0.1-0.3-0.3V4.4c0-0.1,0.1-0.3,0.3-0.3h5.9c0.1,0,0.3,0.1,0.3,0.3v1.1
		C-236.7,5.7-236.8,5.8-236.9,5.8z"/>
	<path class="st6" d="M-251.9,11.8h-5.1c-1,0-1.9-0.8-1.9-1.9V4.8c0-1,0.8-1.9,1.9-1.9h5.1c1,0,1.9,0.8,1.9,1.9v5.1
		C-250,11-250.8,11.8-251.9,11.8z"/>
	<path class="st8" d="M-251.5,10.5h-5.9c-0.1,0-0.3-0.1-0.3-0.3V9.1c0-0.1,0.1-0.3,0.3-0.3h5.9c0.1,0,0.3,0.1,0.3,0.3v1.1
		C-251.2,10.3-251.4,10.5-251.5,10.5z"/>
</g>
</svg>
