<?xml version="1.0" encoding="utf-8"?>
<!-- Generator: Adobe Illustrator 27.6.1, SVG Export Plug-In . SVG Version: 6.00 Build 0)  -->
<svg version="1.1" id="Layer_1" xmlns="http://www.w3.org/2000/svg" xmlns:xlink="http://www.w3.org/1999/xlink" x="0px" y="0px"
	 viewBox="0 0 173.6 213.4" style="enable-background:new 0 0 173.6 213.4;" xml:space="preserve">
<style type="text/css">
	.st0{opacity:0.62;fill:#43A353;enable-background:new    ;}
	.st1{fill:#F2F2F2;}
	.st2{fill:#E6E6E6;}
	.st3{fill:#E6E6E6;stroke:#4D4D4D;stroke-width:0.75;stroke-linejoin:round;stroke-miterlimit:10;}
	.st4{fill:none;stroke:#F092A6;stroke-miterlimit:10;}
	.st5{fill:#FFB5C5;}
	.st6{fill:#E6E6E6;stroke:#666666;stroke-width:0.25;stroke-miterlimit:10;}
	.st7{fill:none;stroke:#4D4D4D;stroke-width:0.5;stroke-linecap:round;stroke-miterlimit:10;}
	.st8{fill:#666666;}
	.st9{fill:#FFFFFF;stroke:#F092A6;stroke-miterlimit:10;}
	.st10{clip-path:url(#SVGID_00000111877056046082312850000007147917137240759213_);}
	.st11{opacity:0.38;fill:#9E4A6D;}
	.st12{font-family:'MyriadPro-Regular';}
	.st13{font-size:5.2737px;}
	.st14{font-size:5.9748px;}
	.st15{font-size:6.0059px;}
	.st16{clip-path:url(#SVGID_00000011725070218369510140000003590722721122175893_);}
	.st17{fill:#9E4A6D;}
</style>
<g id="Layer_1_00000134227012745480355480000018425359645641270705_">
	<path class="st0" d="M167.9,212.5H9.1c-2.3,0-4.1-1.8-4.1-4.1V7.7c0-2.3,1.8-4.1,4.1-4.1h158.8c2.3,0,4.1,1.8,4.1,4.1v200.7
		C172,210.7,170.2,212.5,167.9,212.5z"/>
	<ellipse class="st1" cx="-137.1" cy="-267.4" rx="42.9" ry="29.3"/>
	<ellipse class="st1" cx="-94.2" cy="-277.9" rx="42.9" ry="29.3"/>
	<ellipse class="st1" cx="-55.9" cy="-264.4" rx="42.9" ry="29.3"/>
	<ellipse class="st2" cx="-70.8" cy="-251.3" rx="42.9" ry="29.3"/>
	<ellipse class="st1" cx="-72" cy="-248.6" rx="44.9" ry="29.3"/>
	<ellipse class="st2" cx="-125.7" cy="-258.3" rx="40" ry="25.2"/>
	<ellipse class="st1" cx="-126.8" cy="-252.3" rx="42.9" ry="29.3"/>
	<path class="st3" d="M-24.9-26.7h-158.8c-2.3,0-4.1-1.8-4.1-4.1v-60.8c0-2.3,1.8-4.1,4.1-4.1h158.8c2.3,0,4.1,1.8,4.1,4.1v60.8
		C-20.8-28.6-22.6-26.7-24.9-26.7z"/>
	<line class="st4" x1="-187.4" y1="-84.3" x2="-21.1" y2="-84.3"/>
	<path class="st5" d="M-183.8-95.3h159.1c2,0,3.6,1.6,3.6,3.6v7.4h-166.3v-7.4C-187.4-93.7-185.8-95.3-183.8-95.3z"/>
	<path class="st6" d="M-29.4-85.6h-5.1c-1,0-1.9-0.8-1.9-1.9v-5c0-1,0.8-1.9,1.9-1.9h5.1c1,0,1.9,0.8,1.9,1.9v5.1
		C-27.6-86.4-28.4-85.6-29.4-85.6z"/>
	<line class="st7" x1="-35.1" y1="-93.1" x2="-28.7" y2="-86.7"/>
	<line class="st7" x1="-35.1" y1="-86.9" x2="-28.7" y2="-93.2"/>
	<path class="st6" d="M-45.2-85.5h-5.1c-1,0-1.9-0.8-1.9-1.9v-5.1c0-1,0.8-1.9,1.9-1.9h5.1c1,0,1.9,0.8,1.9,1.9v5.1
		C-43.3-86.3-44.2-85.5-45.2-85.5z"/>
	<path class="st6" d="M-45.2-86.8h-5.2c-0.3,0-0.5-0.2-0.5-0.5v-5.2c0-0.3,0.2-0.5,0.5-0.5h5.2c0.3,0,0.5,0.2,0.5,0.5v5.2
		C-44.7-87.1-44.9-86.8-45.2-86.8z"/>
	<path class="st8" d="M-44.8-91.5h-5.9c-0.1,0-0.3-0.1-0.3-0.3v-1.1c0-0.1,0.1-0.3,0.3-0.3h5.9c0.1,0,0.3,0.1,0.3,0.3v1.1
		C-44.6-91.6-44.7-91.5-44.8-91.5z"/>
	<path class="st6" d="M-59.8-85.5h-5.1c-1,0-1.9-0.8-1.9-1.9v-5.1c0-1,0.8-1.9,1.9-1.9h5.1c1,0,1.9,0.8,1.9,1.9v5.1
		C-57.9-86.3-58.7-85.5-59.8-85.5z"/>
	<path class="st8" d="M-59.4-86.8h-5.9c-0.1,0-0.3-0.1-0.3-0.3v-1.1c0-0.1,0.1-0.3,0.3-0.3h5.9c0.1,0,0.3,0.1,0.3,0.3v1.1
		C-59.1-87-59.3-86.8-59.4-86.8z"/>
	<ellipse class="st9" cx="-137.8" cy="-157.9" rx="37.2" ry="34.3"/>
	<g>
		<g>
			<defs>
				<path id="SVGID_1_" d="M-100.6-158.6c0,18.6-16.6,34.5-37.2,34.5c-20.5,0-37.2-15.9-37.2-34.5s16.6-33,37.2-33
					C-117.3-191.6-100.6-177.3-100.6-158.6z"/>
			</defs>
			<clipPath id="SVGID_00000086669335164078879500000015140668374958843014_">
				<use xlink:href="#SVGID_1_"  style="overflow:visible;"/>
			</clipPath>
			<g style="clip-path:url(#SVGID_00000086669335164078879500000015140668374958843014_);">
				
					<image style="overflow:visible;enable-background:new    ;" width="369" height="474" xlink:href="../../../../stream art/silent.png"  transform="matrix(0.1427 0 0 0.1379 -163.589 -189.4515)">
				</image>
			</g>
		</g>
	</g>
	<path class="st3" d="M164.9,210.5H6.1c-2.3,0-4.1-1.8-4.1-4.1V5.7c0-2.3,1.8-4.1,4.1-4.1h158.8c2.3,0,4.1,1.8,4.1,4.1v200.7
		C169,208.7,167.2,210.5,164.9,210.5z"/>
	<line class="st4" x1="2.4" y1="13.1" x2="168.7" y2="13.1"/>
	<path class="st5" d="M6,2h159.1c2,0,3.6,1.6,3.6,3.6V13H2.4V5.6C2.4,3.6,4,2,6,2z"/>
	<path class="st6" d="M160.4,11.8h-5.1c-1,0-1.9-0.8-1.9-1.9V4.8c0-1,0.8-1.9,1.9-1.9h5.1c1,0,1.9,0.8,1.9,1.9v5.1
		C162.2,10.9,161.4,11.8,160.4,11.8z"/>
	<line class="st7" x1="154.7" y1="4.2" x2="161.1" y2="10.6"/>
	<line class="st7" x1="154.7" y1="10.5" x2="161.1" y2="4.1"/>
	<path class="st6" d="M144.6,11.8h-5.1c-1,0-1.9-0.8-1.9-1.9V4.8c0-1,0.8-1.9,1.9-1.9h5.1c1,0,1.9,0.8,1.9,1.9v5.1
		C146.5,11,145.6,11.8,144.6,11.8z"/>
	<path class="st6" d="M144.6,10.5h-5.2c-0.3,0-0.5-0.2-0.5-0.5V4.8c0-0.3,0.2-0.5,0.5-0.5h5.2c0.3,0,0.5,0.2,0.5,0.5V10
		C145.1,10.3,144.9,10.5,144.6,10.5z"/>
	<path class="st8" d="M145,5.8h-5.9c-0.1,0-0.3-0.1-0.3-0.3V4.4c0-0.1,0.1-0.3,0.3-0.3h5.9c0.1,0,0.3,0.1,0.3,0.3v1.1
		C145.2,5.7,145.1,5.8,145,5.8z"/>
	<path class="st6" d="M130,11.8h-5.1c-1,0-1.9-0.8-1.9-1.9V4.8c0-1,0.8-1.9,1.9-1.9h5.1c1,0,1.9,0.8,1.9,1.9v5.1
		C131.9,11,131.1,11.8,130,11.8z"/>
	<path class="st8" d="M130.4,10.5h-5.9c-0.1,0-0.3-0.1-0.3-0.3V9.1c0-0.1,0.1-0.3,0.3-0.3h5.9c0.1,0,0.3,0.1,0.3,0.3v1.1
		C130.7,10.4,130.5,10.5,130.4,10.5z"/>
	<line class="st4" x1="381.7" y1="-85.6" x2="552.5" y2="-85.6"/>
	<rect x="381.7" y="-97.4" class="st5" width="170.8" height="11.7"/>
	<path class="st6" d="M544-87h-5.3c-1,0-1.9-0.8-1.9-1.9v-5.6c0-1,0.8-1.9,1.9-1.9h5.3c1,0,1.9,0.8,1.9,1.9v5.7
		C545.9-87.8,545.1-87,544-87z"/>
	<line class="st7" x1="538.2" y1="-95" x2="544.7" y2="-88.2"/>
	<line class="st7" x1="538.1" y1="-88.4" x2="544.7" y2="-95.1"/>
	<path class="st6" d="M527.8-86.9h-5.3c-1,0-1.9-0.8-1.9-1.9v-5.7c0-1,0.8-1.9,1.9-1.9h5.3c1,0,1.9,0.8,1.9,1.9v5.7
		C529.7-87.8,528.9-86.9,527.8-86.9z"/>
	<path class="st6" d="M527.8-88.3h-5.3c-0.3,0-0.5-0.2-0.5-0.5v-5.6c0-0.3,0.2-0.5,0.5-0.5h5.3c0.3,0,0.5,0.2,0.5,0.5v5.6
		C528.3-88.6,528.1-88.3,527.8-88.3z"/>
	<path class="st8" d="M528.2-93.3h-6c-0.1,0-0.3-0.1-0.3-0.3v-1.2c0-0.1,0.1-0.3,0.3-0.3h6c0.1,0,0.3,0.1,0.3,0.3v1.2
		C528.4-93.4,528.3-93.3,528.2-93.3z"/>
	<path class="st6" d="M512.9-86.9h-5.3c-1,0-1.9-0.8-1.9-1.9v-5.7c0-1,0.8-1.9,1.9-1.9h5.3c1,0,1.9,0.8,1.9,1.9v5.7
		C514.7-87.8,513.9-86.9,512.9-86.9z"/>
	<path class="st8" d="M513.2-88.3h-6c-0.1,0-0.3-0.1-0.3-0.3v-1.2c0-0.1,0.1-0.3,0.3-0.3h6c0.1,0,0.3,0.1,0.3,0.3v1.2
		C513.5-88.5,513.3-88.3,513.2-88.3z"/>
	<path class="st11" d="M4.6,2.4h28c0.4,0,0.6,1.5,0.6,3.4v7H3.9v-7C3.9,3.9,4.2,2.4,4.6,2.4z"/>
	<path class="st5" d="M4.7,2.6h27.5c0.3,0,0.6,1.5,0.6,3.3v6.9H4.1V5.9C4.1,4.1,4.4,2.6,4.7,2.6z"/>
	<path class="st11" d="M34,2.4h28c0.4,0,0.6,1.5,0.6,3.4v7H33.3v-7C33.3,3.9,33.6,2.4,34,2.4z"/>
	<path class="st5" d="M34.1,2.6h27.5c0.3,0,0.6,1.5,0.6,3.3v6.9H33.5V5.9C33.5,4.1,33.7,2.6,34.1,2.6z"/>
	<path class="st11" d="M63.6,2.5h28c0.4,0,0.6,1.5,0.6,3.4v7H63v-7C63,4,63.2,2.5,63.6,2.5z"/>
	<path class="st5" d="M63.7,2.7h27.5c0.3,0,0.6,1.5,0.6,3.3v6.9H63.1V6C63.1,4.2,63.4,2.7,63.7,2.7z"/>
	<text transform="matrix(1.4117 0 0 1 10.0983 8.8)" class="st12 st13">intro</text>
	<text transform="matrix(1.0215 0 0 1 37.6684 9.0066)" class="st12 st14">Website</text>
	<text transform="matrix(0.8972 0 0 1 67.1015 9.0975)" class="st12 st15">Emnesite</text>
</g>
<g id="Layer_2_00000132809667858381341700000018072781317351688599_">
	<ellipse class="st9" cx="-39.9" cy="-157.9" rx="37.2" ry="34.3"/>
	<g>
		<g>
			<defs>
				<path id="SVGID_00000134221439529124361690000004190293569000476325_" d="M-2.7-158.6c0,18.6-16.6,34.5-37.2,34.5
					c-20.5,0-37.2-15.9-37.2-34.5s16.6-33,37.2-33S-2.7-177.3-2.7-158.6z"/>
			</defs>
			<clipPath id="SVGID_00000027588792863334344000000011194169109384122001_">
				<use xlink:href="#SVGID_00000134221439529124361690000004190293569000476325_"  style="overflow:visible;"/>
			</clipPath>
			<g style="clip-path:url(#SVGID_00000027588792863334344000000011194169109384122001_);">
				
					<image style="overflow:visible;enable-background:new    ;" width="369" height="474" xlink:href="../../../../stream art/talkin.png"  transform="matrix(0.1423 0 0 0.1394 -65.5251 -189.7134)">
				</image>
			</g>
		</g>
	</g>
</g>
<g id="Layer_4">
	<path class="st0" d="M355.6,5.4H196.8c-2.3,0-4.1-1.8-4.1-4.1v-93.5c0-2.3,1.8-4.1,4.1-4.1h158.8c2.3,0,4.1,1.8,4.1,4.1V1.3
		C359.7,3.5,357.9,5.4,355.6,5.4z"/>
	<path class="st3" d="M353.6,3.2H194.8c-2.3,0-4.1-1.8-4.1-4.1v-93c0-2.3,1.8-4.1,4.1-4.1h158.8c2.3,0,4.1,1.8,4.1,4.1v93
		C357.7,1.3,355.9,3.2,353.6,3.2z"/>
	<line class="st4" x1="191.1" y1="-86.7" x2="357.4" y2="-86.7"/>
	<path class="st17" d="M194.7-97.7h159.1c2,0,3.6,1.6,3.6,3.6v7.4H191.1v-7.4C191.1-96.1,192.7-97.7,194.7-97.7z"/>
	<path class="st6" d="M349.1-88H344c-1,0-1.9-0.8-1.9-1.9v-5c0-1,0.8-1.9,1.9-1.9h5.1c1,0,1.9,0.8,1.9,1.9v5.1
		C350.9-88.8,350.1-88,349.1-88z"/>
	<line class="st7" x1="343.4" y1="-95.5" x2="349.8" y2="-89.1"/>
	<line class="st7" x1="343.4" y1="-89.3" x2="349.8" y2="-95.6"/>
	<path class="st6" d="M333.2-87.9h-5.1c-1,0-1.9-0.8-1.9-1.9v-5.1c0-1,0.8-1.9,1.9-1.9h5.1c1,0,1.9,0.8,1.9,1.9v5.1
		C335.2-88.7,334.2-87.9,333.2-87.9z"/>
	<path class="st6" d="M333.2-89.2h-5.2c-0.3,0-0.5-0.2-0.5-0.5v-5.2c0-0.3,0.2-0.5,0.5-0.5h5.2c0.3,0,0.5,0.2,0.5,0.5v5.2
		C333.8-89.5,333.6-89.2,333.2-89.2z"/>
	<path class="st8" d="M333.7-93.9h-5.9c-0.1,0-0.3-0.1-0.3-0.3v-1.1c0-0.1,0.1-0.3,0.3-0.3h5.9c0.1,0,0.3,0.1,0.3,0.3v1.1
		C333.9-94,333.8-93.9,333.7-93.9z"/>
	<path class="st6" d="M318.7-87.9h-5.1c-1,0-1.9-0.8-1.9-1.9v-5.1c0-1,0.8-1.9,1.9-1.9h5.1c1,0,1.9,0.8,1.9,1.9v5.1
		C320.6-88.7,319.8-87.9,318.7-87.9z"/>
	<path class="st8" d="M319.1-89.2h-5.9c-0.1,0-0.3-0.1-0.3-0.3v-1.1c0-0.1,0.1-0.3,0.3-0.3h5.9c0.1,0,0.3,0.1,0.3,0.3v1.1
		C319.4-89.4,319.2-89.2,319.1-89.2z"/>
</g>
<g id="Layer_3">
	<path class="st3" d="M165.1-26.7H6.3c-2.3,0-4.1-1.8-4.1-4.1v-60.8c-10-12-0.1-2.5,4.1-4.1h158.8c2.3,0,4.1,1.8,4.1,4.1v60.8
		C169.2-28.6,167.4-26.7,165.1-26.7z"/>
	<line class="st4" x1="2.6" y1="-84.3" x2="168.9" y2="-84.3"/>
	<path class="st5" d="M6.2-95.4h159.1c2,0,3.6,1.6,3.6,3.6v7.4H2.6l-0.1-7.4C-7.2-103.1,1.5-93.9,6.2-95.4z"/>
	<path class="st6" d="M160.6-85.6h-5.1c-1,0-1.9-0.8-1.9-1.9v-5c0-1,0.8-1.9,1.9-1.9h5.1c1,0,1.9,0.8,1.9,1.9v5.1
		C162.4-86.4,161.6-85.6,160.6-85.6z"/>
	<line class="st7" x1="154.9" y1="-93.1" x2="161.3" y2="-86.7"/>
	<line class="st7" x1="154.9" y1="-86.9" x2="161.3" y2="-93.2"/>
	<path class="st6" d="M144.8-85.5h-5.1c-1,0-1.9-0.8-1.9-1.9v-5.1c0-1,0.8-1.9,1.9-1.9h5.1c1,0,1.9,0.8,1.9,1.9v5.1
		C146.7-86.3,145.8-85.5,144.8-85.5z"/>
	<path class="st6" d="M144.8-86.8h-5.2c-0.3,0-0.5-0.2-0.5-0.5v-5.2c0-0.3,0.2-0.5,0.5-0.5h5.2c0.3,0,0.5,0.2,0.5,0.5v5.2
		C145.3-87.1,145.1-86.8,144.8-86.8z"/>
	<path class="st8" d="M145.2-91.5h-5.9c-0.1,0-0.3-0.1-0.3-0.3v-1.1c0-0.1,0.1-0.3,0.3-0.3h5.9c0.1,0,0.3,0.1,0.3,0.3v1.1
		C145.4-91.6,145.3-91.5,145.2-91.5z"/>
	<path class="st6" d="M130.2-85.5h-5.1c-1,0-1.9-0.8-1.9-1.9v-5.1c0-1,0.8-1.9,1.9-1.9h5.1c1,0,1.9,0.8,1.9,1.9v5.1
		C132.1-86.3,131.3-85.5,130.2-85.5z"/>
	<path class="st8" d="M130.6-86.8h-5.9c-0.1,0-0.3-0.1-0.3-0.3v-1.1c0-0.1,0.1-0.3,0.3-0.3h5.9c0.1,0,0.3,0.1,0.3,0.3v1.1
		C130.9-87,130.7-86.8,130.6-86.8z"/>
</g>
</svg>
