<?xml version="1.0" encoding="utf-8"?>
<!-- Generator: Adobe Illustrator 27.5.0, SVG Export Plug-In . SVG Version: 6.00 Build 0)  -->
<svg version="1.1" xmlns="http://www.w3.org/2000/svg" xmlns:xlink="http://www.w3.org/1999/xlink" x="0px" y="0px"
	 viewBox="0 0 283.1 73.4" style="enable-background:new 0 0 283.1 73.4;" xml:space="preserve">
<style type="text/css">
	.st0{opacity:0.62;fill:#6298A8;}
	.st1{fill:#F2F2F2;}
	.st2{fill:#E6E6E6;}
	.st3{fill:#E6E6E6;stroke:#4D4D4D;stroke-width:0.75;stroke-linejoin:round;stroke-miterlimit:10;}
	.st4{fill:none;stroke:#F092A6;stroke-miterlimit:10;}
	.st5{fill:#F5EDA8;}
	.st6{fill:#E6E6E6;stroke:#666666;stroke-width:0.25;stroke-miterlimit:10;}
	.st7{fill:none;stroke:#4D4D4D;stroke-width:0.5;stroke-linecap:round;stroke-miterlimit:10;}
	.st8{fill:#666666;}
	.st9{fill:#FFFFFF;stroke:#F092A6;stroke-miterlimit:10;}
</style>
<g id="Layer_1">
	<path class="st0" d="M-507.9,72.7h-158.5c-2.3,0-4.1-1.8-4.1-4.1v-61c0-2.3,1.8-4.1,4.1-4.1h158.5c2.3,0,4.1,1.8,4.1,4.1v61
		C-503.8,70.9-505.6,72.7-507.9,72.7z"/>
	<path class="st0" d="M279,72.6H7.3c-2.3,0-4.1-1.8-4.1-4.1V5.6c0-2.3,1.8-4.1,4.1-4.1H279c2.3,0,4.1,1.8,4.1,4.1v62.8
		C283.1,70.7,281.3,72.6,279,72.6z"/>
	<path class="st0" d="M-319.3,307.8h-158.8c-2.3,0-4.1-1.8-4.1-4.1V103c0-2.3,1.8-4.1,4.1-4.1h158.8c2.3,0,4.1,1.8,4.1,4.1v200.7
		C-315.2,306-317,307.8-319.3,307.8z"/>
	<ellipse class="st1" cx="-622.3" cy="-170.1" rx="42.9" ry="29.3"/>
	<ellipse class="st1" cx="-579.4" cy="-180.6" rx="42.9" ry="29.3"/>
	<ellipse class="st1" cx="-541.1" cy="-167.1" rx="42.9" ry="29.3"/>
	<ellipse class="st2" cx="-556" cy="-154" rx="42.9" ry="29.3"/>
	<ellipse class="st1" cx="-557.2" cy="-151.3" rx="44.9" ry="29.3"/>
	<ellipse class="st2" cx="-610.9" cy="-161" rx="40" ry="25.2"/>
	<ellipse class="st1" cx="-612" cy="-155" rx="42.9" ry="29.3"/>
	<path class="st3" d="M-510.1,70.6h-158.8c-2.3,0-4.1-1.8-4.1-4.1V5.7c0-2.3,1.8-4.1,4.1-4.1h158.8c2.3,0,4.1,1.8,4.1,4.1v60.8
		C-506,68.7-507.8,70.6-510.1,70.6z"/>
	<line class="st4" x1="-672.6" y1="13" x2="-506.3" y2="13"/>
	<path class="st5" d="M-669.1,2h159.1c2,0,3.6,1.6,3.6,3.6V13h-166.3V5.6C-672.6,3.6-671,2-669.1,2z"/>
	<path class="st6" d="M-514.6,11.7h-5.1c-1,0-1.9-0.8-1.9-1.9V4.8c0-1,0.8-1.9,1.9-1.9h5.1c1,0,1.9,0.8,1.9,1.9v5.1
		C-512.8,10.9-513.6,11.7-514.6,11.7z"/>
	<line class="st7" x1="-520.3" y1="4.2" x2="-513.9" y2="10.6"/>
	<line class="st7" x1="-520.3" y1="10.4" x2="-513.9" y2="4.1"/>
	<path class="st6" d="M-530.4,11.8h-5.1c-1,0-1.9-0.8-1.9-1.9V4.8c0-1,0.8-1.9,1.9-1.9h5.1c1,0,1.9,0.8,1.9,1.9v5.1
		C-528.5,11-529.4,11.8-530.4,11.8z"/>
	<path class="st6" d="M-530.4,10.5h-5.2c-0.3,0-0.5-0.2-0.5-0.5V4.8c0-0.3,0.2-0.5,0.5-0.5h5.2c0.3,0,0.5,0.2,0.5,0.5V10
		C-529.9,10.2-530.1,10.5-530.4,10.5z"/>
	<path class="st8" d="M-530,5.8h-5.9c-0.1,0-0.3-0.1-0.3-0.3V4.4c0-0.1,0.1-0.3,0.3-0.3h5.9c0.1,0,0.3,0.1,0.3,0.3v1.1
		C-529.8,5.7-529.9,5.8-530,5.8z"/>
	<path class="st6" d="M-545,11.8h-5.1c-1,0-1.9-0.8-1.9-1.9V4.8c0-1,0.8-1.9,1.9-1.9h5.1c1,0,1.9,0.8,1.9,1.9v5.1
		C-543.1,11-544,11.8-545,11.8z"/>
	<path class="st8" d="M-544.6,10.5h-5.9c-0.1,0-0.3-0.1-0.3-0.3V9.1c0-0.1,0.1-0.3,0.3-0.3h5.9c0.1,0,0.3,0.1,0.3,0.3v1.1
		C-544.3,10.3-544.5,10.5-544.6,10.5z"/>
	<ellipse class="st9" cx="-623" cy="-60.6" rx="37.2" ry="34.3"/>
	<g>
		<defs>
			<path id="SVGID_1_" d="M-585.9-61.3c0,18.6-16.6,34.5-37.2,34.5s-37.2-15.9-37.2-34.5s16.6-33,37.2-33S-585.9-80-585.9-61.3z"/>
		</defs>
		<clipPath id="SVGID_00000048463900346762855780000012373684402806418315_">
			<use xlink:href="#SVGID_1_"  style="overflow:visible;"/>
		</clipPath>
		<g style="clip-path:url(#SVGID_00000048463900346762855780000012373684402806418315_);">
			
				<image style="overflow:visible;" width="369" height="474" xlink:href="../../../../stream art/silent.png"  transform="matrix(0.1427 0 0 0.1379 -648.7955 -92.1515)">
			</image>
		</g>
	</g>
	<path class="st3" d="M-322.3,305.8h-158.8c-2.3,0-4.1-1.8-4.1-4.1V101c0-2.3,1.8-4.1,4.1-4.1h158.8c2.3,0,4.1,1.8,4.1,4.1v200.7
		C-318.2,304-320,305.8-322.3,305.8z"/>
	<line class="st4" x1="-484.8" y1="108.4" x2="-318.5" y2="108.4"/>
	<path class="st5" d="M-481.2,97.3h159.1c2,0,3.6,1.6,3.6,3.6v7.4h-166.3v-7.4C-484.8,98.9-483.2,97.3-481.2,97.3z"/>
	<path class="st6" d="M-326.8,107.1h-5.1c-1,0-1.9-0.8-1.9-1.9v-5.1c0-1,0.8-1.9,1.9-1.9h5.1c1,0,1.9,0.8,1.9,1.9v5.1
		C-325,106.2-325.8,107.1-326.8,107.1z"/>
	<line class="st7" x1="-332.5" y1="99.5" x2="-326.1" y2="105.9"/>
	<line class="st7" x1="-332.5" y1="105.8" x2="-326.1" y2="99.4"/>
	<path class="st6" d="M-342.6,107.1h-5.1c-1,0-1.9-0.8-1.9-1.9v-5.1c0-1,0.8-1.9,1.9-1.9h5.1c1,0,1.9,0.8,1.9,1.9v5.1
		C-340.7,106.3-341.6,107.1-342.6,107.1z"/>
	<path class="st6" d="M-342.6,105.8h-5.2c-0.3,0-0.5-0.2-0.5-0.5v-5.2c0-0.3,0.2-0.5,0.5-0.5h5.2c0.3,0,0.5,0.2,0.5,0.5v5.2
		C-342.1,105.6-342.3,105.8-342.6,105.8z"/>
	<path class="st8" d="M-342.2,101.1h-5.9c-0.1,0-0.3-0.1-0.3-0.3v-1.1c0-0.1,0.1-0.3,0.3-0.3h5.9c0.1,0,0.3,0.1,0.3,0.3v1.1
		C-342,101-342.1,101.1-342.2,101.1z"/>
	<path class="st6" d="M-357.2,107.1h-5.1c-1,0-1.9-0.8-1.9-1.9v-5.1c0-1,0.8-1.9,1.9-1.9h5.1c1,0,1.9,0.8,1.9,1.9v5.1
		C-355.3,106.3-356.2,107.1-357.2,107.1z"/>
	<path class="st8" d="M-356.8,105.8h-5.9c-0.1,0-0.3-0.1-0.3-0.3v-1.1c0-0.1,0.1-0.3,0.3-0.3h5.9c0.1,0,0.3,0.1,0.3,0.3v1.1
		C-356.5,105.7-356.7,105.8-356.8,105.8z"/>
	<path class="st3" d="M274.8,69.8H5.7c-2.3,0-4.1-1.8-4.1-4.1V4.8c0-2.3,1.8-4.1,4.1-4.1h269.1c2.3,0,4.1,1.8,4.1,4.1v60.9
		C278.9,68,277.1,69.8,274.8,69.8z"/>
	<line class="st4" x1="2.1" y1="12.2" x2="278.6" y2="12.2"/>
	<path class="st5" d="M5.7,1.2H275c2,0,3.6,1.6,3.6,3.6v7.5H2.1V4.8C2.1,2.8,3.7,1.2,5.7,1.2z"/>
	<path class="st6" d="M273.5,11.6h-5.1c-1,0-1.9-0.8-1.9-1.9V4.7c0-1,0.8-1.9,1.9-1.9h5.1c1,0,1.9,0.8,1.9,1.9v5.1
		C275.4,10.8,274.5,11.6,273.5,11.6z"/>
	<line class="st7" x1="267.9" y1="4.1" x2="274.2" y2="10.5"/>
	<line class="st7" x1="267.8" y1="10.3" x2="274.2" y2="4"/>
	<path class="st6" d="M257.7,11.7h-5.1c-1,0-1.9-0.8-1.9-1.9V4.8c0-1,0.8-1.9,1.9-1.9h5.1c1,0,1.9,0.8,1.9,1.9v5.1
		C259.6,10.9,258.8,11.7,257.7,11.7z"/>
	<path class="st6" d="M257.8,10.4h-5.2c-0.3,0-0.5-0.2-0.5-0.5V4.7c0-0.3,0.2-0.5,0.5-0.5h5.2c0.3,0,0.5,0.2,0.5,0.5v5.2
		C258.3,10.2,258,10.4,257.8,10.4z"/>
	<path class="st8" d="M258.1,5.7h-5.9c-0.1,0-0.3-0.1-0.3-0.3V4.4c0-0.1,0.1-0.3,0.3-0.3h5.9c0.1,0,0.3,0.1,0.3,0.3v1.1
		C258.4,5.6,258.3,5.7,258.1,5.7z"/>
	<path class="st6" d="M243.1,11.7H238c-1,0-1.9-0.8-1.9-1.9V4.8c0-1,0.8-1.9,1.9-1.9h5.1c1,0,1.9,0.8,1.9,1.9v5.1
		C245,10.9,244.2,11.7,243.1,11.7z"/>
	<path class="st8" d="M243.5,10.4h-5.9c-0.1,0-0.3-0.1-0.3-0.3V9c0-0.1,0.1-0.3,0.3-0.3h5.9c0.1,0,0.3,0.1,0.3,0.3v1.1
		C243.8,10.3,243.7,10.4,243.5,10.4z"/>
</g>
<g id="Layer_2">
	<ellipse class="st9" cx="-525.1" cy="-60.6" rx="37.2" ry="34.3"/>
	<g>
		<defs>
			<path id="SVGID_00000016790575655445251430000006900942964247747203_" d="M-487.9-61.3c0,18.6-16.6,34.5-37.2,34.5
				c-20.5,0-37.2-15.9-37.2-34.5s16.6-33,37.2-33C-504.6-94.3-487.9-80-487.9-61.3z"/>
		</defs>
		<clipPath id="SVGID_00000073712643012239986880000002478582170340694969_">
			<use xlink:href="#SVGID_00000016790575655445251430000006900942964247747203_"  style="overflow:visible;"/>
		</clipPath>
		<g style="clip-path:url(#SVGID_00000073712643012239986880000002478582170340694969_);">
			
				<image style="overflow:visible;" width="369" height="474" xlink:href="../../../../stream art/talkin.png"  transform="matrix(0.1423 0 0 0.1394 -550.7316 -92.4134)">
			</image>
		</g>
	</g>
</g>
<g id="Layer_4">
	<path class="st0" d="M-128.1,105.1h-158.8c-2.3,0-4.1-1.8-4.1-4.1V7.5c0-2.3,1.8-4.1,4.1-4.1h158.8c2.3,0,4.1,1.8,4.1,4.1V101
		C-124,103.2-125.8,105.1-128.1,105.1z"/>
	<path class="st3" d="M-130.1,102.9h-158.8c-2.3,0-4.1-1.8-4.1-4.1v-93c0-2.3,1.8-4.1,4.1-4.1h158.8c2.3,0,4.1,1.8,4.1,4.1v93
		C-126,101-127.8,102.9-130.1,102.9z"/>
	<line class="st4" x1="-292.6" y1="13" x2="-126.3" y2="13"/>
	<path class="st5" d="M-289,2h159.1c2,0,3.6,1.6,3.6,3.6V13h-166.3V5.6C-292.6,3.6-291,2-289,2z"/>
	<path class="st6" d="M-134.6,11.7h-5.1c-1,0-1.9-0.8-1.9-1.9V4.8c0-1,0.8-1.9,1.9-1.9h5.1c1,0,1.9,0.8,1.9,1.9v5.1
		C-132.8,10.9-133.6,11.7-134.6,11.7z"/>
	<line class="st7" x1="-140.3" y1="4.2" x2="-133.9" y2="10.6"/>
	<line class="st7" x1="-140.3" y1="10.4" x2="-133.9" y2="4.1"/>
	<path class="st6" d="M-150.4,11.8h-5.1c-1,0-1.9-0.8-1.9-1.9V4.8c0-1,0.8-1.9,1.9-1.9h5.1c1,0,1.9,0.8,1.9,1.9v5.1
		C-148.5,11-149.4,11.8-150.4,11.8z"/>
	<path class="st6" d="M-150.4,10.5h-5.2c-0.3,0-0.5-0.2-0.5-0.5V4.8c0-0.3,0.2-0.5,0.5-0.5h5.2c0.3,0,0.5,0.2,0.5,0.5V10
		C-149.9,10.2-150.1,10.5-150.4,10.5z"/>
	<path class="st8" d="M-150,5.8h-5.9c-0.1,0-0.3-0.1-0.3-0.3V4.4c0-0.1,0.1-0.3,0.3-0.3h5.9c0.1,0,0.3,0.1,0.3,0.3v1.1
		C-149.8,5.7-149.9,5.8-150,5.8z"/>
	<path class="st6" d="M-165,11.8h-5.1c-1,0-1.9-0.8-1.9-1.9V4.8c0-1,0.8-1.9,1.9-1.9h5.1c1,0,1.9,0.8,1.9,1.9v5.1
		C-163.1,11-164,11.8-165,11.8z"/>
	<path class="st8" d="M-164.6,10.5h-5.9c-0.1,0-0.3-0.1-0.3-0.3V9.1c0-0.1,0.1-0.3,0.3-0.3h5.9c0.1,0,0.3,0.1,0.3,0.3v1.1
		C-164.3,10.3-164.5,10.5-164.6,10.5z"/>
</g>
<g id="Layer_3">
	<path class="st0" d="M-318.4,72.6h-158.5c-2.3,0-4.1-1.8-4.1-4.1v-61c0-2.3,1.8-4.1,4.1-4.1h158.5c2.3,0,4.1,1.8,4.1,4.1v61
		C-314.3,70.7-316.1,72.6-318.4,72.6z"/>
	<path class="st3" d="M-320.1,70.6h-158.8c-2.3,0-4.1-1.8-4.1-4.1V5.7c-10-12-0.1-2.5,4.1-4.1h158.8c2.3,0,4.1,1.8,4.1,4.1v60.8
		C-316,68.7-317.8,70.6-320.1,70.6z"/>
	<line class="st4" x1="-482.6" y1="13" x2="-316.3" y2="13"/>
	<path class="st5" d="M-479,1.9h159.1c2,0,3.6,1.6,3.6,3.6v7.4h-166.3l-0.1-7.4C-492.4-5.8-483.7,3.4-479,1.9z"/>
	<path class="st6" d="M-324.6,11.7h-5.1c-1,0-1.9-0.8-1.9-1.9V4.8c0-1,0.8-1.9,1.9-1.9h5.1c1,0,1.9,0.8,1.9,1.9v5.1
		C-322.8,10.9-323.6,11.7-324.6,11.7z"/>
	<line class="st7" x1="-330.3" y1="4.2" x2="-323.9" y2="10.6"/>
	<line class="st7" x1="-330.3" y1="10.4" x2="-323.9" y2="4.1"/>
	<path class="st6" d="M-340.4,11.8h-5.1c-1,0-1.9-0.8-1.9-1.9V4.8c0-1,0.8-1.9,1.9-1.9h5.1c1,0,1.9,0.8,1.9,1.9v5.1
		C-338.5,11-339.4,11.8-340.4,11.8z"/>
	<path class="st6" d="M-340.4,10.5h-5.2c-0.3,0-0.5-0.2-0.5-0.5V4.8c0-0.3,0.2-0.5,0.5-0.5h5.2c0.3,0,0.5,0.2,0.5,0.5V10
		C-339.9,10.2-340.1,10.5-340.4,10.5z"/>
	<path class="st8" d="M-340,5.8h-5.9c-0.1,0-0.3-0.1-0.3-0.3V4.4c0-0.1,0.1-0.3,0.3-0.3h5.9c0.1,0,0.3,0.1,0.3,0.3v1.1
		C-339.8,5.7-339.9,5.8-340,5.8z"/>
	<path class="st6" d="M-355,11.8h-5.1c-1,0-1.9-0.8-1.9-1.9V4.8c0-1,0.8-1.9,1.9-1.9h5.1c1,0,1.9,0.8,1.9,1.9v5.1
		C-353.1,11-354,11.8-355,11.8z"/>
	<path class="st8" d="M-354.6,10.5h-5.9c-0.1,0-0.3-0.1-0.3-0.3V9.1c0-0.1,0.1-0.3,0.3-0.3h5.9c0.1,0,0.3,0.1,0.3,0.3v1.1
		C-354.3,10.3-354.5,10.5-354.6,10.5z"/>
</g>
</svg>
