<?xml version="1.0" encoding="utf-8"?>
<!-- Generator: Adobe Illustrator 27.5.0, SVG Export Plug-In . SVG Version: 6.00 Build 0)  -->
<svg version="1.1" xmlns="http://www.w3.org/2000/svg" xmlns:xlink="http://www.w3.org/1999/xlink" x="0px" y="0px"
	 viewBox="0 0 170.8 73.1" style="enable-background:new 0 0 170.8 73.1;" xml:space="preserve">
<style type="text/css">
	.st0{opacity:0.62;fill:#6298A8;}
	.st1{fill:#F2F2F2;}
	.st2{fill:#E6E6E6;}
	.st3{fill:#E6E6E6;stroke:#4D4D4D;stroke-width:0.75;stroke-linejoin:round;stroke-miterlimit:10;}
	.st4{fill:none;stroke:#F092A6;stroke-miterlimit:10;}
	.st5{fill:#F5EDA8;}
	.st6{fill:#E6E6E6;stroke:#666666;stroke-width:0.25;stroke-miterlimit:10;}
	.st7{fill:none;stroke:#4D4D4D;stroke-width:0.5;stroke-linecap:round;stroke-miterlimit:10;}
	.st8{fill:#666666;}
	.st9{fill:#FFFFFF;stroke:#F092A6;stroke-miterlimit:10;}
</style>
<g id="Layer_1">
	<path class="st0" d="M166.5,72.7H8c-2.3,0-4.1-1.8-4.1-4.1v-61c0-2.3,1.8-4.1,4.1-4.1h158.5c2.3,0,4.1,1.8,4.1,4.1v61
		C170.6,70.9,168.8,72.7,166.5,72.7z"/>
	<path class="st0" d="M953.4,72.6H681.7c-2.3,0-4.1-1.8-4.1-4.1V5.6c0-2.3,1.8-4.1,4.1-4.1h271.7c2.3,0,4.1,1.8,4.1,4.1v62.8
		C957.6,70.7,955.7,72.6,953.4,72.6z"/>
	<path class="st0" d="M355.2,307.8H196.4c-2.3,0-4.1-1.8-4.1-4.1V103c0-2.3,1.8-4.1,4.1-4.1h158.8c2.3,0,4.1,1.8,4.1,4.1v200.7
		C359.3,306,357.4,307.8,355.2,307.8z"/>
	<ellipse class="st1" cx="52.1" cy="-170.1" rx="42.9" ry="29.3"/>
	<ellipse class="st1" cx="95" cy="-180.6" rx="42.9" ry="29.3"/>
	<ellipse class="st1" cx="133.3" cy="-167.1" rx="42.9" ry="29.3"/>
	<ellipse class="st2" cx="118.4" cy="-154" rx="42.9" ry="29.3"/>
	<ellipse class="st1" cx="117.3" cy="-151.3" rx="44.9" ry="29.3"/>
	<ellipse class="st2" cx="63.5" cy="-161" rx="40" ry="25.2"/>
	<ellipse class="st1" cx="62.4" cy="-155" rx="42.9" ry="29.3"/>
	<path class="st3" d="M164.4,70.6H5.6c-2.3,0-4.1-1.8-4.1-4.1V5.7c0-2.3,1.8-4.1,4.1-4.1h158.8c2.3,0,4.1,1.8,4.1,4.1v60.8
		C168.5,68.7,166.6,70.6,164.4,70.6z"/>
	<line class="st4" x1="1.8" y1="13" x2="168.1" y2="13"/>
	<path class="st5" d="M5.4,2h159.1c2,0,3.6,1.6,3.6,3.6V13H1.8V5.6C1.8,3.6,3.4,2,5.4,2z"/>
	<path class="st6" d="M159.8,11.7h-5.1c-1,0-1.9-0.8-1.9-1.9V4.8c0-1,0.8-1.9,1.9-1.9h5.1c1,0,1.9,0.8,1.9,1.9v5.1
		C161.7,10.9,160.8,11.7,159.8,11.7z"/>
	<line class="st7" x1="154.2" y1="4.2" x2="160.5" y2="10.6"/>
	<line class="st7" x1="154.1" y1="10.4" x2="160.5" y2="4.1"/>
	<path class="st6" d="M144,11.8h-5.1c-1,0-1.9-0.8-1.9-1.9V4.8c0-1,0.8-1.9,1.9-1.9h5.1c1,0,1.9,0.8,1.9,1.9v5.1
		C145.9,11,145.1,11.8,144,11.8z"/>
	<path class="st6" d="M144.1,10.5h-5.2c-0.3,0-0.5-0.2-0.5-0.5V4.8c0-0.3,0.2-0.5,0.5-0.5h5.2c0.3,0,0.5,0.2,0.5,0.5V10
		C144.6,10.2,144.3,10.5,144.1,10.5z"/>
	<path class="st8" d="M144.4,5.8h-5.9c-0.1,0-0.3-0.1-0.3-0.3V4.4c0-0.1,0.1-0.3,0.3-0.3h5.9c0.1,0,0.3,0.1,0.3,0.3v1.1
		C144.7,5.7,144.6,5.8,144.4,5.8z"/>
	<path class="st6" d="M129.5,11.8h-5.1c-1,0-1.9-0.8-1.9-1.9V4.8c0-1,0.8-1.9,1.9-1.9h5.1c1,0,1.9,0.8,1.9,1.9v5.1
		C131.3,11,130.5,11.8,129.5,11.8z"/>
	<path class="st8" d="M129.8,10.5H124c-0.1,0-0.3-0.1-0.3-0.3V9.1c0-0.1,0.1-0.3,0.3-0.3h5.9c0.1,0,0.3,0.1,0.3,0.3v1.1
		C130.1,10.3,130,10.5,129.8,10.5z"/>
	<ellipse class="st9" cx="51.4" cy="-60.6" rx="37.2" ry="34.3"/>
	<g>
		<defs>
			<path id="SVGID_1_" d="M88.6-61.3c0,18.6-16.6,34.5-37.2,34.5S14.2-42.7,14.2-61.3s16.6-33,37.2-33S88.6-80,88.6-61.3z"/>
		</defs>
		<clipPath id="SVGID_00000095299718951738938690000006963911746585536423_">
			<use xlink:href="#SVGID_1_"  style="overflow:visible;"/>
		</clipPath>
		<g style="clip-path:url(#SVGID_00000095299718951738938690000006963911746585536423_);">
			
				<image style="overflow:visible;" width="369" height="474" xlink:href="../../../../stream art/silent.png"  transform="matrix(0.1427 0 0 0.1379 25.6457 -92.1515)">
			</image>
		</g>
	</g>
	<path class="st3" d="M352.2,305.8H193.4c-2.3,0-4.1-1.8-4.1-4.1V101c0-2.3,1.8-4.1,4.1-4.1h158.8c2.3,0,4.1,1.8,4.1,4.1v200.7
		C356.3,304,354.4,305.8,352.2,305.8z"/>
	<line class="st4" x1="189.6" y1="108.4" x2="355.9" y2="108.4"/>
	<path class="st5" d="M193.2,97.3h159.1c2,0,3.6,1.6,3.6,3.6v7.4H189.6v-7.4C189.6,98.9,191.2,97.3,193.2,97.3z"/>
	<path class="st6" d="M347.6,107.1h-5.1c-1,0-1.9-0.8-1.9-1.9v-5.1c0-1,0.8-1.9,1.9-1.9h5.1c1,0,1.9,0.8,1.9,1.9v5.1
		C349.5,106.2,348.6,107.1,347.6,107.1z"/>
	<line class="st7" x1="342" y1="99.5" x2="348.3" y2="105.9"/>
	<line class="st7" x1="341.9" y1="105.8" x2="348.3" y2="99.4"/>
	<path class="st6" d="M331.8,107.1h-5.1c-1,0-1.9-0.8-1.9-1.9v-5.1c0-1,0.8-1.9,1.9-1.9h5.1c1,0,1.9,0.8,1.9,1.9v5.1
		C333.7,106.3,332.9,107.1,331.8,107.1z"/>
	<path class="st6" d="M331.9,105.8h-5.2c-0.3,0-0.5-0.2-0.5-0.5v-5.2c0-0.3,0.2-0.5,0.5-0.5h5.2c0.3,0,0.5,0.2,0.5,0.5v5.2
		C332.4,105.6,332.1,105.8,331.9,105.8z"/>
	<path class="st8" d="M332.2,101.1h-5.9c-0.1,0-0.3-0.1-0.3-0.3v-1.1c0-0.1,0.1-0.3,0.3-0.3h5.9c0.1,0,0.3,0.1,0.3,0.3v1.1
		C332.5,101,332.4,101.1,332.2,101.1z"/>
	<path class="st6" d="M317.3,107.1h-5.1c-1,0-1.9-0.8-1.9-1.9v-5.1c0-1,0.8-1.9,1.9-1.9h5.1c1,0,1.9,0.8,1.9,1.9v5.1
		C319.1,106.3,318.3,107.1,317.3,107.1z"/>
	<path class="st8" d="M317.6,105.8h-5.9c-0.1,0-0.3-0.1-0.3-0.3v-1.1c0-0.1,0.1-0.3,0.3-0.3h5.9c0.1,0,0.3,0.1,0.3,0.3v1.1
		C317.9,105.7,317.8,105.8,317.6,105.8z"/>
	<path class="st3" d="M949.2,69.8H680.1c-2.3,0-4.1-1.8-4.1-4.1V4.8c0-2.3,1.8-4.1,4.1-4.1h269.1c2.3,0,4.1,1.8,4.1,4.1v60.9
		C953.4,68,951.5,69.8,949.2,69.8z"/>
	<line class="st4" x1="676.6" y1="12.2" x2="953.1" y2="12.2"/>
	<path class="st5" d="M680.1,1.2h269.3c2,0,3.6,1.6,3.6,3.6v7.5H676.6V4.8C676.6,2.8,678.2,1.2,680.1,1.2z"/>
	<path class="st6" d="M947.9,11.6h-5.1c-1,0-1.9-0.8-1.9-1.9V4.7c0-1,0.8-1.9,1.9-1.9h5.1c1,0,1.9,0.8,1.9,1.9v5.1
		C949.8,10.8,949,11.6,947.9,11.6z"/>
	<line class="st7" x1="942.3" y1="4.1" x2="948.6" y2="10.5"/>
	<line class="st7" x1="942.2" y1="10.3" x2="948.6" y2="4"/>
	<path class="st6" d="M932.2,11.7h-5.1c-1,0-1.9-0.8-1.9-1.9V4.8c0-1,0.8-1.9,1.9-1.9h5.1c1,0,1.9,0.8,1.9,1.9v5.1
		C934,10.9,933.2,11.7,932.2,11.7z"/>
	<path class="st6" d="M932.2,10.4H927c-0.3,0-0.5-0.2-0.5-0.5V4.7c0-0.3,0.2-0.5,0.5-0.5h5.2c0.3,0,0.5,0.2,0.5,0.5v5.2
		C932.7,10.2,932.5,10.4,932.2,10.4z"/>
	<path class="st8" d="M932.5,5.7h-5.9c-0.1,0-0.3-0.1-0.3-0.3V4.4c0-0.1,0.1-0.3,0.3-0.3h5.9c0.1,0,0.3,0.1,0.3,0.3v1.1
		C932.8,5.6,932.7,5.7,932.5,5.7z"/>
	<path class="st6" d="M917.6,11.7h-5.1c-1,0-1.9-0.8-1.9-1.9V4.8c0-1,0.8-1.9,1.9-1.9h5.1c1,0,1.9,0.8,1.9,1.9v5.1
		C919.5,10.9,918.6,11.7,917.6,11.7z"/>
	<path class="st8" d="M918,10.4h-5.9c-0.1,0-0.3-0.1-0.3-0.3V9c0-0.1,0.1-0.3,0.3-0.3h5.9c0.1,0,0.3,0.1,0.3,0.3v1.1
		C918.2,10.3,918.1,10.4,918,10.4z"/>
</g>
<g id="Layer_2">
	<ellipse class="st9" cx="149.3" cy="-60.6" rx="37.2" ry="34.3"/>
	<g>
		<defs>
			<path id="SVGID_00000082336346459713435860000017101033177287232403_" d="M186.5-61.3c0,18.6-16.6,34.5-37.2,34.5
				s-37.2-15.9-37.2-34.5s16.6-33,37.2-33S186.5-80,186.5-61.3z"/>
		</defs>
		<clipPath id="SVGID_00000098221010417590823540000012657619240603360904_">
			<use xlink:href="#SVGID_00000082336346459713435860000017101033177287232403_"  style="overflow:visible;"/>
		</clipPath>
		<g style="clip-path:url(#SVGID_00000098221010417590823540000012657619240603360904_);">
			
				<image style="overflow:visible;" width="369" height="474" xlink:href="../../../../stream art/talkin.png"  transform="matrix(0.1423 0 0 0.1394 123.7096 -92.4134)">
			</image>
		</g>
	</g>
</g>
<g id="Layer_4">
	<path class="st0" d="M546.3,105.1H387.5c-2.3,0-4.1-1.8-4.1-4.1V7.5c0-2.3,1.8-4.1,4.1-4.1h158.8c2.3,0,4.1,1.8,4.1,4.1V101
		C550.5,103.2,548.6,105.1,546.3,105.1z"/>
	<path class="st3" d="M544.4,102.9H385.6c-2.3,0-4.1-1.8-4.1-4.1v-93c0-2.3,1.8-4.1,4.1-4.1h158.8c2.3,0,4.1,1.8,4.1,4.1v93
		C548.5,101,546.6,102.9,544.4,102.9z"/>
	<line class="st4" x1="381.8" y1="13" x2="548.1" y2="13"/>
	<path class="st5" d="M385.4,2h159.1c2,0,3.6,1.6,3.6,3.6V13H381.8V5.6C381.8,3.6,383.4,2,385.4,2z"/>
	<path class="st6" d="M539.8,11.7h-5.1c-1,0-1.9-0.8-1.9-1.9V4.8c0-1,0.8-1.9,1.9-1.9h5.1c1,0,1.9,0.8,1.9,1.9v5.1
		C541.7,10.9,540.8,11.7,539.8,11.7z"/>
	<line class="st7" x1="534.2" y1="4.2" x2="540.5" y2="10.6"/>
	<line class="st7" x1="534.1" y1="10.4" x2="540.5" y2="4.1"/>
	<path class="st6" d="M524,11.8h-5.1c-1,0-1.9-0.8-1.9-1.9V4.8c0-1,0.8-1.9,1.9-1.9h5.1c1,0,1.9,0.8,1.9,1.9v5.1
		C525.9,11,525.1,11.8,524,11.8z"/>
	<path class="st6" d="M524.1,10.5h-5.2c-0.3,0-0.5-0.2-0.5-0.5V4.8c0-0.3,0.2-0.5,0.5-0.5h5.2c0.3,0,0.5,0.2,0.5,0.5V10
		C524.6,10.2,524.3,10.5,524.1,10.5z"/>
	<path class="st8" d="M524.4,5.8h-5.9c-0.1,0-0.3-0.1-0.3-0.3V4.4c0-0.1,0.1-0.3,0.3-0.3h5.9c0.1,0,0.3,0.1,0.3,0.3v1.1
		C524.7,5.7,524.6,5.8,524.4,5.8z"/>
	<path class="st6" d="M509.5,11.8h-5.1c-1,0-1.9-0.8-1.9-1.9V4.8c0-1,0.8-1.9,1.9-1.9h5.1c1,0,1.9,0.8,1.9,1.9v5.1
		C511.3,11,510.5,11.8,509.5,11.8z"/>
	<path class="st8" d="M509.8,10.5H504c-0.1,0-0.3-0.1-0.3-0.3V9.1c0-0.1,0.1-0.3,0.3-0.3h5.9c0.1,0,0.3,0.1,0.3,0.3v1.1
		C510.1,10.3,510,10.5,509.8,10.5z"/>
</g>
<g id="Layer_3">
	<path class="st0" d="M356.1,72.6H197.5c-2.3,0-4.1-1.8-4.1-4.1v-61c0-2.3,1.8-4.1,4.1-4.1h158.5c2.3,0,4.1,1.8,4.1,4.1v61
		C360.2,70.7,358.3,72.6,356.1,72.6z"/>
	<path class="st3" d="M354.4,70.6H195.6c-2.3,0-4.1-1.8-4.1-4.1V5.7c-10-12-0.1-2.5,4.1-4.1h158.8c2.3,0,4.1,1.8,4.1,4.1v60.8
		C358.5,68.7,356.6,70.6,354.4,70.6z"/>
	<line class="st4" x1="191.8" y1="13" x2="358.1" y2="13"/>
	<path class="st5" d="M195.5,1.9h159.1c2,0,3.6,1.6,3.6,3.6v7.4H191.9l-0.1-7.4C182-5.8,190.7,3.4,195.5,1.9z"/>
	<path class="st6" d="M349.8,11.7h-5.1c-1,0-1.9-0.8-1.9-1.9V4.8c0-1,0.8-1.9,1.9-1.9h5.1c1,0,1.9,0.8,1.9,1.9v5.1
		C351.7,10.9,350.8,11.7,349.8,11.7z"/>
	<line class="st7" x1="344.2" y1="4.2" x2="350.5" y2="10.6"/>
	<line class="st7" x1="344.1" y1="10.4" x2="350.5" y2="4.1"/>
	<path class="st6" d="M334,11.8h-5.1c-1,0-1.9-0.8-1.9-1.9V4.8c0-1,0.8-1.9,1.9-1.9h5.1c1,0,1.9,0.8,1.9,1.9v5.1
		C335.9,11,335.1,11.8,334,11.8z"/>
	<path class="st6" d="M334.1,10.5h-5.2c-0.3,0-0.5-0.2-0.5-0.5V4.8c0-0.3,0.2-0.5,0.5-0.5h5.2c0.3,0,0.5,0.2,0.5,0.5V10
		C334.6,10.2,334.3,10.5,334.1,10.5z"/>
	<path class="st8" d="M334.4,5.8h-5.9c-0.1,0-0.3-0.1-0.3-0.3V4.4c0-0.1,0.1-0.3,0.3-0.3h5.9c0.1,0,0.3,0.1,0.3,0.3v1.1
		C334.7,5.7,334.6,5.8,334.4,5.8z"/>
	<path class="st6" d="M319.5,11.8h-5.1c-1,0-1.9-0.8-1.9-1.9V4.8c0-1,0.8-1.9,1.9-1.9h5.1c1,0,1.9,0.8,1.9,1.9v5.1
		C321.3,11,320.5,11.8,319.5,11.8z"/>
	<path class="st8" d="M319.8,10.5H314c-0.1,0-0.3-0.1-0.3-0.3V9.1c0-0.1,0.1-0.3,0.3-0.3h5.9c0.1,0,0.3,0.1,0.3,0.3v1.1
		C320.1,10.3,320,10.5,319.8,10.5z"/>
</g>
</svg>
