<?xml version="1.0" encoding="utf-8"?>
<!-- Generator: Adobe Illustrator 27.5.0, SVG Export Plug-In . SVG Version: 6.00 Build 0)  -->
<svg version="1.1" xmlns="http://www.w3.org/2000/svg" xmlns:xlink="http://www.w3.org/1999/xlink" x="0px" y="0px"
	 viewBox="0 0 173.5 213.9" style="enable-background:new 0 0 173.5 213.9;" xml:space="preserve">
<style type="text/css">
	.st0{opacity:0.62;fill:#6298A8;}
	.st1{opacity:0.62;fill:#43A353;}
	.st2{fill:#F2F2F2;}
	.st3{fill:#E6E6E6;}
	.st4{fill:#E6E6E6;stroke:#4D4D4D;stroke-width:0.75;stroke-linejoin:round;stroke-miterlimit:10;}
	.st5{fill:none;stroke:#F092A6;stroke-miterlimit:10;}
	.st6{fill:#F5EDA8;}
	.st7{fill:#E6E6E6;stroke:#666666;stroke-width:0.25;stroke-miterlimit:10;}
	.st8{fill:none;stroke:#4D4D4D;stroke-width:0.5;stroke-linecap:round;stroke-miterlimit:10;}
	.st9{fill:#666666;}
	.st10{fill:#FFFFFF;stroke:#F092A6;stroke-miterlimit:10;}
	.st11{fill:#FFB5C5;}
</style>
<g id="Layer_1">
	<path class="st0" d="M-20-21.3h-158.5c-2.3,0-4.1-1.8-4.1-4.1v-61c0-2.3,1.8-4.1,4.1-4.1H-20c2.3,0,4.1,1.8,4.1,4.1v61
		C-15.9-23.2-17.7-21.3-20-21.3z"/>
	<path class="st1" d="M766.9-21.5H495.2c-2.3,0-4.1-1.8-4.1-4.1v-62.8c0-2.3,1.8-4.1,4.1-4.1h271.7c2.3,0,4.1,1.8,4.1,4.1v62.8
		C771-23.3,769.2-21.5,766.9-21.5z"/>
	<path class="st0" d="M168.6,213.8H9.8c-2.3,0-4.1-1.8-4.1-4.1V9c0-2.3,1.8-4.1,4.1-4.1h158.8c2.3,0,4.1,1.8,4.1,4.1v200.7
		C172.7,211.9,170.9,213.8,168.6,213.8z"/>
	<ellipse class="st2" cx="-134.4" cy="-264.1" rx="42.9" ry="29.3"/>
	<ellipse class="st2" cx="-91.5" cy="-274.6" rx="42.9" ry="29.3"/>
	<ellipse class="st2" cx="-53.2" cy="-261.1" rx="42.9" ry="29.3"/>
	<ellipse class="st3" cx="-68.1" cy="-248.1" rx="42.9" ry="29.3"/>
	<ellipse class="st2" cx="-69.3" cy="-245.4" rx="44.9" ry="29.3"/>
	<ellipse class="st3" cx="-123" cy="-255" rx="40" ry="25.2"/>
	<ellipse class="st2" cx="-124.1" cy="-249.1" rx="42.9" ry="29.3"/>
	<path class="st4" d="M-22.2-23.5H-181c-2.3,0-4.1-1.8-4.1-4.1v-60.8c0-2.3,1.8-4.1,4.1-4.1h158.8c2.3,0,4.1,1.8,4.1,4.1v60.8
		C-18.1-25.3-19.9-23.5-22.2-23.5z"/>
	<line class="st5" x1="-184.7" y1="-81" x2="-18.4" y2="-81"/>
	<path class="st6" d="M-181.1-92.1H-22c2,0,3.6,1.6,3.6,3.6v7.4h-166.3v-7.4C-184.7-90.4-183.1-92.1-181.1-92.1z"/>
	<path class="st7" d="M-26.7-82.3h-5.1c-1,0-1.9-0.8-1.9-1.9v-5.1c0-1,0.8-1.9,1.9-1.9h5.1c1,0,1.9,0.8,1.9,1.9v5.1
		C-24.9-83.2-25.7-82.3-26.7-82.3z"/>
	<line class="st8" x1="-32.4" y1="-89.9" x2="-26" y2="-83.5"/>
	<line class="st8" x1="-32.4" y1="-83.6" x2="-26" y2="-89.9"/>
	<path class="st7" d="M-42.5-82.2h-5.1c-1,0-1.9-0.8-1.9-1.9v-5.1c0-1,0.8-1.9,1.9-1.9h5.1c1,0,1.9,0.8,1.9,1.9v5.1
		C-40.6-83.1-41.5-82.2-42.5-82.2z"/>
	<path class="st7" d="M-42.5-83.6h-5.2c-0.3,0-0.5-0.2-0.5-0.5v-5.2c0-0.3,0.2-0.5,0.5-0.5h5.2c0.3,0,0.5,0.2,0.5,0.5v5.2
		C-42-83.8-42.2-83.6-42.5-83.6z"/>
	<path class="st9" d="M-42.1-88.3H-48c-0.1,0-0.3-0.1-0.3-0.3v-1.1c0-0.1,0.1-0.3,0.3-0.3h5.9c0.1,0,0.3,0.1,0.3,0.3v1.1
		C-41.9-88.4-42-88.3-42.1-88.3z"/>
	<path class="st7" d="M-57.1-82.2h-5.1c-1,0-1.9-0.8-1.9-1.9v-5.1c0-1,0.8-1.9,1.9-1.9h5.1c1,0,1.9,0.8,1.9,1.9v5.1
		C-55.2-83.1-56-82.2-57.1-82.2z"/>
	<path class="st9" d="M-56.7-83.6h-5.9c-0.1,0-0.3-0.1-0.3-0.3v-1.1c0-0.1,0.1-0.3,0.3-0.3h5.9c0.1,0,0.3,0.1,0.3,0.3v1.1
		C-56.4-83.7-56.6-83.6-56.7-83.6z"/>
	<ellipse class="st10" cx="-135.1" cy="-154.6" rx="37.2" ry="34.3"/>
	<g>
		<defs>
			<path id="SVGID_1_" d="M-97.9-155.4c0,18.6-16.6,34.5-37.2,34.5s-37.2-15.9-37.2-34.5s16.6-33,37.2-33S-97.9-174-97.9-155.4z"/>
		</defs>
		<clipPath id="SVGID_00000070839259589956372010000003151311529411560581_">
			<use xlink:href="#SVGID_1_"  style="overflow:visible;"/>
		</clipPath>
		
			<g transform="matrix(1 0 0 1 -1.525879e-05 0)" style="clip-path:url(#SVGID_00000070839259589956372010000003151311529411560581_);">
			
				<image style="overflow:visible;" width="369" height="474" xlink:href="../../../../stream art/silent.png"  transform="matrix(0.1427 0 0 0.1379 -160.8881 -186.1985)">
			</image>
		</g>
	</g>
	<path class="st4" d="M165.6,211.8H6.8c-2.3,0-4.1-1.8-4.1-4.1V7c0-2.3,1.8-4.1,4.1-4.1h158.8c2.3,0,4.1,1.8,4.1,4.1v200.7
		C169.7,209.9,167.9,211.8,165.6,211.8z"/>
	<line class="st5" x1="3.1" y1="14.3" x2="169.4" y2="14.3"/>
	<path class="st6" d="M6.7,3.3h159.1c2,0,3.6,1.6,3.6,3.6v7.4H3.1V6.9C3.1,4.9,4.7,3.3,6.7,3.3z"/>
	<path class="st7" d="M161.1,13H156c-1,0-1.9-0.8-1.9-1.9V6.1c0-1,0.8-1.9,1.9-1.9h5.1c1,0,1.9,0.8,1.9,1.9v5.1
		C162.9,12.2,162.1,13,161.1,13z"/>
	<line class="st8" x1="155.4" y1="5.5" x2="161.8" y2="11.9"/>
	<line class="st8" x1="155.4" y1="11.7" x2="161.8" y2="5.4"/>
	<path class="st7" d="M145.3,13.1h-5.1c-1,0-1.9-0.8-1.9-1.9V6.1c0-1,0.8-1.9,1.9-1.9h5.1c1,0,1.9,0.8,1.9,1.9v5.1
		C147.2,12.3,146.3,13.1,145.3,13.1z"/>
	<path class="st7" d="M145.3,11.8h-5.2c-0.3,0-0.5-0.2-0.5-0.5V6.1c0-0.3,0.2-0.5,0.5-0.5h5.2c0.3,0,0.5,0.2,0.5,0.5v5.2
		C145.8,11.5,145.6,11.8,145.3,11.8z"/>
	<path class="st9" d="M145.7,7.1h-5.9c-0.1,0-0.3-0.1-0.3-0.3V5.7c0-0.1,0.1-0.3,0.3-0.3h5.9c0.1,0,0.3,0.1,0.3,0.3v1.1
		C145.9,7,145.8,7.1,145.7,7.1z"/>
	<path class="st7" d="M130.7,13.1h-5.1c-1,0-1.9-0.8-1.9-1.9V6.1c0-1,0.8-1.9,1.9-1.9h5.1c1,0,1.9,0.8,1.9,1.9v5.1
		C132.6,12.3,131.8,13.1,130.7,13.1z"/>
	<path class="st9" d="M131.1,11.8h-5.9c-0.1,0-0.3-0.1-0.3-0.3v-1.1c0-0.1,0.1-0.3,0.3-0.3h5.9c0.1,0,0.3,0.1,0.3,0.3v1.1
		C131.4,11.6,131.2,11.8,131.1,11.8z"/>
	<path class="st4" d="M762.7-24.2H493.6c-2.3,0-4.1-1.8-4.1-4.1v-60.9c0-2.3,1.8-4.1,4.1-4.1h269.1c2.3,0,4.1,1.8,4.1,4.1v60.9
		C766.8-26,765-24.2,762.7-24.2z"/>
	<line class="st5" x1="490" y1="-81.8" x2="766.5" y2="-81.8"/>
	<path class="st11" d="M493.6-92.9h269.3c2,0,3.6,1.6,3.6,3.6v7.5H490v-7.5C490-91.3,491.6-92.9,493.6-92.9z"/>
	<path class="st7" d="M761.4-82.4h-5.1c-1,0-1.9-0.8-1.9-1.9v-5.1c0-1,0.8-1.9,1.9-1.9h5.1c1,0,1.9,0.8,1.9,1.9v5.1
		C763.3-83.2,762.4-82.4,761.4-82.4z"/>
	<line class="st8" x1="755.8" y1="-89.9" x2="762.1" y2="-83.6"/>
	<line class="st8" x1="755.7" y1="-83.7" x2="762.1" y2="-90"/>
	<path class="st7" d="M745.6-82.3h-5.1c-1,0-1.9-0.8-1.9-1.9v-5.1c0-1,0.8-1.9,1.9-1.9h5.1c1,0,1.9,0.8,1.9,1.9v5.1
		C747.5-83.2,746.7-82.3,745.6-82.3z"/>
	<path class="st7" d="M745.7-83.7h-5.2c-0.3,0-0.5-0.2-0.5-0.5v-5.2c0-0.3,0.2-0.5,0.5-0.5h5.2c0.3,0,0.5,0.2,0.5,0.5v5.2
		C746.2-83.9,745.9-83.7,745.7-83.7z"/>
	<path class="st9" d="M746-88.4h-5.9c-0.1,0-0.3-0.1-0.3-0.3v-1.1c0-0.1,0.1-0.3,0.3-0.3h5.9c0.1,0,0.3,0.1,0.3,0.3v1.1
		C746.3-88.5,746.2-88.4,746-88.4z"/>
	<path class="st7" d="M731.1-82.3h-5.1c-1,0-1.9-0.8-1.9-1.9v-5.1c0-1,0.8-1.9,1.9-1.9h5.1c1,0,1.9,0.8,1.9,1.9v5.1
		C732.9-83.2,732.1-82.3,731.1-82.3z"/>
	<path class="st9" d="M731.4-83.7h-5.9c-0.1,0-0.3-0.1-0.3-0.3V-85c0-0.1,0.1-0.3,0.3-0.3h5.9c0.1,0,0.3,0.1,0.3,0.3v1.1
		C731.7-83.8,731.6-83.7,731.4-83.7z"/>
</g>
<g id="Layer_2">
	<ellipse class="st10" cx="-37.2" cy="-154.6" rx="37.2" ry="34.3"/>
	<g>
		<defs>
			<path id="SVGID_00000034771153227959671490000011600498776491405478_" d="M0-155.4c0,18.6-16.6,34.5-37.2,34.5
				s-37.2-15.9-37.2-34.5s16.6-33,37.2-33S0-174,0-155.4z"/>
		</defs>
		<clipPath id="SVGID_00000015344284642018570680000013783211019232901801_">
			<use xlink:href="#SVGID_00000034771153227959671490000011600498776491405478_"  style="overflow:visible;"/>
		</clipPath>
		
			<g transform="matrix(1 0 0 1 -3.814697e-06 0)" style="clip-path:url(#SVGID_00000015344284642018570680000013783211019232901801_);">
			
				<image style="overflow:visible;" width="369" height="474" xlink:href="../../../../stream art/talkin.png"  transform="matrix(0.1423 0 0 0.1394 -62.8242 -186.4604)">
			</image>
		</g>
	</g>
</g>
<g id="Layer_4">
	<path class="st0" d="M359.8,11H201c-2.3,0-4.1-1.8-4.1-4.1v-93.5c0-2.3,1.8-4.1,4.1-4.1h158.8c2.3,0,4.1,1.8,4.1,4.1V6.9
		C363.9,9.2,362.1,11,359.8,11z"/>
	<path class="st4" d="M357.8,8.8H199c-2.3,0-4.1-1.8-4.1-4.1v-93c0-2.3,1.8-4.1,4.1-4.1h158.8c2.3,0,4.1,1.8,4.1,4.1v93
		C361.9,7,360.1,8.8,357.8,8.8z"/>
	<line class="st5" x1="195.3" y1="-81" x2="361.6" y2="-81"/>
	<path class="st11" d="M198.9-92.1H358c2,0,3.6,1.6,3.6,3.6v7.4H195.3v-7.4C195.3-90.4,196.9-92.1,198.9-92.1z"/>
	<path class="st7" d="M353.3-82.3h-5.1c-1,0-1.9-0.8-1.9-1.9v-5.1c0-1,0.8-1.9,1.9-1.9h5.1c1,0,1.9,0.8,1.9,1.9v5.1
		C355.1-83.2,354.3-82.3,353.3-82.3z"/>
	<line class="st8" x1="347.6" y1="-89.9" x2="354" y2="-83.5"/>
	<line class="st8" x1="347.6" y1="-83.6" x2="354" y2="-89.9"/>
	<path class="st7" d="M337.5-82.2h-5.1c-1,0-1.9-0.8-1.9-1.9v-5.1c0-1,0.8-1.9,1.9-1.9h5.1c1,0,1.9,0.8,1.9,1.9v5.1
		C339.4-83.1,338.5-82.2,337.5-82.2z"/>
	<path class="st7" d="M337.5-83.6h-5.2c-0.3,0-0.5-0.2-0.5-0.5v-5.2c0-0.3,0.2-0.5,0.5-0.5h5.2c0.3,0,0.5,0.2,0.5,0.5v5.2
		C338-83.8,337.8-83.6,337.5-83.6z"/>
	<path class="st9" d="M337.9-88.3H332c-0.1,0-0.3-0.1-0.3-0.3v-1.1c0-0.1,0.1-0.3,0.3-0.3h5.9c0.1,0,0.3,0.1,0.3,0.3v1.1
		C338.1-88.4,338-88.3,337.9-88.3z"/>
	<path class="st7" d="M322.9-82.2h-5.1c-1,0-1.9-0.8-1.9-1.9v-5.1c0-1,0.8-1.9,1.9-1.9h5.1c1,0,1.9,0.8,1.9,1.9v5.1
		C324.8-83.1,324-82.2,322.9-82.2z"/>
	<path class="st9" d="M323.3-83.6h-5.9c-0.1,0-0.3-0.1-0.3-0.3v-1.1c0-0.1,0.1-0.3,0.3-0.3h5.9c0.1,0,0.3,0.1,0.3,0.3v1.1
		C323.6-83.7,323.4-83.6,323.3-83.6z"/>
</g>
<g id="Layer_3">
	<path class="st0" d="M169.5-21.5H11c-2.3,0-4.1-1.8-4.1-4.1v-61c0-2.3,1.8-4.1,4.1-4.1h158.5c2.3,0,4.1,1.8,4.1,4.1v61
		C173.6-23.3,171.8-21.5,169.5-21.5z"/>
	<path class="st4" d="M167.8-23.5H9c-2.3,0-4.1-1.8-4.1-4.1v-60.8c-10-12-0.1-2.5,4.1-4.1h158.8c2.3,0,4.1,1.8,4.1,4.1v60.8
		C171.9-25.3,170.1-23.5,167.8-23.5z"/>
	<line class="st5" x1="5.3" y1="-81" x2="171.6" y2="-81"/>
	<path class="st6" d="M8.9-92.1H168c2,0,3.6,1.6,3.6,3.6v7.4H5.3l-0.1-7.4C-4.5-99.9,4.2-90.6,8.9-92.1z"/>
	<path class="st7" d="M163.3-82.3h-5.1c-1,0-1.9-0.8-1.9-1.9v-5.1c0-1,0.8-1.9,1.9-1.9h5.1c1,0,1.9,0.8,1.9,1.9v5.1
		C165.1-83.2,164.3-82.3,163.3-82.3z"/>
	<line class="st8" x1="157.6" y1="-89.9" x2="164" y2="-83.5"/>
	<line class="st8" x1="157.6" y1="-83.6" x2="164" y2="-89.9"/>
	<path class="st7" d="M147.5-82.2h-5.1c-1,0-1.9-0.8-1.9-1.9v-5.1c0-1,0.8-1.9,1.9-1.9h5.1c1,0,1.9,0.8,1.9,1.9v5.1
		C149.4-83.1,148.5-82.2,147.5-82.2z"/>
	<path class="st7" d="M147.5-83.6h-5.2c-0.3,0-0.5-0.2-0.5-0.5v-5.2c0-0.3,0.2-0.5,0.5-0.5h5.2c0.3,0,0.5,0.2,0.5,0.5v5.2
		C148-83.8,147.8-83.6,147.5-83.6z"/>
	<path class="st9" d="M147.9-88.3H142c-0.1,0-0.3-0.1-0.3-0.3v-1.1c0-0.1,0.1-0.3,0.3-0.3h5.9c0.1,0,0.3,0.1,0.3,0.3v1.1
		C148.1-88.4,148-88.3,147.9-88.3z"/>
	<path class="st7" d="M132.9-82.2h-5.1c-1,0-1.9-0.8-1.9-1.9v-5.1c0-1,0.8-1.9,1.9-1.9h5.1c1,0,1.9,0.8,1.9,1.9v5.1
		C134.8-83.1,134-82.2,132.9-82.2z"/>
	<path class="st9" d="M133.3-83.6h-5.9c-0.1,0-0.3-0.1-0.3-0.3v-1.1c0-0.1,0.1-0.3,0.3-0.3h5.9c0.1,0,0.3,0.1,0.3,0.3v1.1
		C133.6-83.7,133.4-83.6,133.3-83.6z"/>
</g>
</svg>
